<?xml version="1.0" encoding="UTF-8" standalone="no"?>
<!DOCTYPE svg PUBLIC "-//W3C//DTD SVG 1.1//EN" "http://www.w3.org/Graphics/SVG/1.1/DTD/svg11.dtd">
<svg xmlns="http://www.w3.org/2000/svg" xmlns:xlink="http://www.w3.org/1999/xlink" version="1.1" width="174.998pt" height="89.971pt" viewBox="0 0 174.998 89.971">
<g enable-background="new">
<clipPath id="cp0">
<path transform="matrix(1,0,0,-1,-146.326,666.43606)" d="M 0 0 L 612 0 L 612 792 L 0 792 Z "/>
</clipPath>
<g clip-path="url(#cp0)">
<path transform="matrix(1,0,0,-1,16.658997,72.83301)" stroke-width=".19925" stroke-linecap="butt" stroke-miterlimit="10" stroke-linejoin="miter" fill="none" stroke="#929292" d="M -14.17339 -14.17339 L 155.90744 -14.17339 M -14.17339 0 L 155.90744 0 M -14.17339 14.17339 L 155.90744 14.17339 M -14.17339 28.34679 L 155.90744 28.34679 M -14.17339 42.52019 L 155.90744 42.52019 M -14.17339 56.69359 L 155.90744 56.69359 M -14.17339 70.86697 L 155.90744 70.86697 M -14.17339 -14.17339 L -14.17339 70.867 M 0 -14.17339 L 0 70.867 M 14.17339 -14.17339 L 14.17339 70.867 M 28.34679 -14.17339 L 28.34679 70.867 M 42.52019 -14.17339 L 42.52019 70.867 M 56.69359 -14.17339 L 56.69359 70.867 M 70.86697 -14.17339 L 70.86697 70.867 M 85.04037 -14.17339 L 85.04037 70.867 M 99.21378 -14.17339 L 99.21378 70.867 M 113.38718 -14.17339 L 113.38718 70.867 M 127.56056 -14.17339 L 127.56056 70.867 M 141.73397 -14.17339 L 141.73397 70.867 M 155.90737 -14.17339 L 155.90737 70.867 M 155.90744 70.867 "/>
<path transform="matrix(1,0,0,-1,16.658997,72.83301)" stroke-width=".99628" stroke-linecap="butt" stroke-miterlimit="10" stroke-linejoin="miter" fill="none" stroke="#00aeef" d="M 0 0 L 28.3468 42.5202 L 51.02432 0 "/>
<path transform="matrix(1,0,0,-1,16.658997,72.83301)" stroke-width=".49814" stroke-linecap="butt" stroke-miterlimit="10" stroke-linejoin="miter" fill="none" stroke="#000000" d="M 0 0 L 56.17305 0 "/>
<path transform="matrix(1,0,0,-1,72.83205,72.83301)" stroke-width=".3985" stroke-linecap="round" stroke-linejoin="round" fill="none" stroke="#000000" d="M -1.28517 1.71356 C -1.17807 1.07097 0 .10709 .32129 0 C 0 -.10709 -1.17807 -1.07097 -1.28517 -1.71356 "/>
<text xml:space="preserve" transform="matrix(1 0 -0 1 -146.326 666.43606)" font-size="9.9626" font-family="CMMI10" font-style="italic"><tspan y="-583.905" x="217.879">t</tspan></text>
<path transform="matrix(1,0,0,-1,16.658997,72.83301)" stroke-width=".3985" stroke-linecap="butt" stroke-miterlimit="10" stroke-linejoin="miter" fill="none" stroke="#000000" d="M 85.04042 0 L 141.27576 0 "/>
<path transform="matrix(1,0,0,-1,157.93476,72.83301)" stroke-width=".31879" stroke-linecap="round" stroke-linejoin="round" fill="none" stroke="#000000" d="M -1.19551 1.59401 C -1.09587 .99626 0 .09961 .29886 0 C 0 -.09961 -1.09587 -.99626 -1.19551 -1.59401 "/>
<text xml:space="preserve" transform="matrix(1 0 -0 1 -146.326 666.43606)" font-size="9.9626" font-family="CMMI10" font-style="italic"><tspan y="-583.955" x="302.919">t</tspan></text>
<path transform="matrix(1,0,0,-1,16.658997,72.83301)" stroke-width=".59776" stroke-linecap="butt" stroke-miterlimit="10" stroke-linejoin="miter" fill="none" stroke="#000000" d="M 0 0 L 0 56.11078 "/>
<path transform="matrix(0,-1,-1,-0,16.658997,16.722229)" stroke-width=".4782" stroke-linecap="round" stroke-linejoin="round" fill="none" stroke="#000000" d="M -1.37483 1.83311 C -1.26025 1.14569 0 .11455 .34369 0 C 0 -.11455 -1.26025 -1.14569 -1.37483 -1.83311 "/>
<text xml:space="preserve" transform="matrix(1 0 -0 1 -146.326 666.43606)" font-size="9.9626" font-family="CMMI10" font-style="italic"><tspan y="-656.406" x="154.337">f</tspan></text>
<text xml:space="preserve" transform="matrix(1 0 -0 1 -146.326 666.43606)" font-size="9.9626" font-family="CMR10"><tspan y="-656.406" x="160.287">(</tspan></text>
<text xml:space="preserve" transform="matrix(1 0 -0 1 -146.326 666.43606)" font-size="9.9626" font-family="CMMI10" font-style="italic"><tspan y="-656.406" x="164.161">t</tspan></text>
<text xml:space="preserve" transform="matrix(1 0 -0 1 -146.326 666.43606)" font-size="9.9626" font-family="CMR10"><tspan y="-656.406" x="167.759">)</tspan></text>
<path transform="matrix(1,0,0,-1,16.658997,72.83301)" stroke-width=".3985" stroke-linecap="butt" stroke-miterlimit="10" stroke-linejoin="miter" fill="none" stroke="#000000" d="M 85.04042 0 L 85.04042 56.23534 "/>
<path transform="matrix(0,-1,-1,-0,101.69942,16.597668)" stroke-width=".31879" stroke-linecap="round" stroke-linejoin="round" fill="none" stroke="#000000" d="M -1.19551 1.59401 C -1.09587 .99626 0 .09961 .29886 0 C 0 -.09961 -1.09587 -.99626 -1.19551 -1.59401 "/>
<text xml:space="preserve" transform="matrix(1 0 -0 1 -146.326 666.43606)" font-size="9.9626" font-family="CMMI10" font-style="italic"><tspan y="-656.306" x="239.797">g</tspan></text>
<text xml:space="preserve" transform="matrix(1 0 -0 1 -146.326 666.43606)" font-size="9.9626" font-family="CMR10"><tspan y="-656.306" x="244.90599">(</tspan></text>
<text xml:space="preserve" transform="matrix(1 0 -0 1 -146.326 666.43606)" font-size="9.9626" font-family="CMMI10" font-style="italic"><tspan y="-656.306" x="248.77999">t</tspan></text>
<text xml:space="preserve" transform="matrix(1 0 -0 1 -146.326 666.43606)" font-size="9.9626" font-family="CMR10"><tspan y="-656.306" x="252.37799">)</tspan></text>
<path transform="matrix(1,0,0,-1,16.658997,72.83301)" d="M 86.45784 14.17339 C 86.45784 14.95622 85.82324 15.5908 85.04042 15.5908 C 84.2576 15.5908 83.623 14.95622 83.623 14.17339 C 83.623 13.39056 84.2576 12.75597 85.04042 12.75597 C 85.82324 12.75597 86.45784 13.39056 86.45784 14.17339 Z M 85.04042 14.17339 " fill="#ff0000"/>
<path transform="matrix(1,0,0,-1,16.658997,72.83301)" stroke-width=".3985" stroke-linecap="butt" stroke-miterlimit="10" stroke-linejoin="miter" fill="none" stroke="#ff0000" d="M 86.45784 14.17339 C 86.45784 14.95622 85.82324 15.5908 85.04042 15.5908 C 84.2576 15.5908 83.623 14.95622 83.623 14.17339 C 83.623 13.39056 84.2576 12.75597 85.04042 12.75597 C 85.82324 12.75597 86.45784 13.39056 86.45784 14.17339 Z M 85.04042 14.17339 "/>
<path transform="matrix(1,0,0,-1,16.658997,72.83301)" stroke-width=".99628" stroke-linecap="butt" stroke-miterlimit="10" stroke-linejoin="miter" fill="none" stroke="#ff0000" d="M 85.04042 14.17339 L 97.79639 14.17339 C 97.79639 14.95622 98.43098 15.5908 99.2138 15.5908 C 99.99663 15.5908 100.63123 14.95622 100.63123 14.17339 C 100.63123 13.39056 99.99663 12.75597 99.2138 12.75597 C 98.43098 12.75597 97.79639 13.39056 97.79639 14.17339 C 97.79639 14.95622 98.43098 15.5908 99.2138 15.5908 C 99.99663 15.5908 100.63123 14.95622 100.63123 14.17339 "/>
<path transform="matrix(1,0,0,-1,16.658997,72.83301)" d="M 100.63124 28.3468 C 100.63124 29.12962 99.99664 29.76422 99.21382 29.76422 C 98.431 29.76422 97.7964 29.12962 97.7964 28.3468 C 97.7964 27.56398 98.431 26.92938 99.21382 26.92938 C 99.99664 26.92938 100.63124 27.56398 100.63124 28.3468 Z M 99.21382 28.3468 " fill="#ff0000"/>
<path transform="matrix(1,0,0,-1,16.658997,72.83301)" stroke-width=".3985" stroke-linecap="butt" stroke-miterlimit="10" stroke-linejoin="miter" fill="none" stroke="#ff0000" d="M 100.63124 28.3468 C 100.63124 29.12962 99.99664 29.76422 99.21382 29.76422 C 98.431 29.76422 97.7964 29.12962 97.7964 28.3468 C 97.7964 27.56398 98.431 26.92938 99.21382 26.92938 C 99.99664 26.92938 100.63124 27.56398 100.63124 28.3468 Z M 99.21382 28.3468 "/>
<path transform="matrix(1,0,0,-1,16.658997,72.83301)" stroke-width=".99628" stroke-linecap="butt" stroke-miterlimit="10" stroke-linejoin="miter" fill="none" stroke="#ff0000" d="M 99.21382 28.3468 L 111.9698 28.3468 C 111.9698 29.12962 112.60439 29.76422 113.38722 29.76422 C 114.17004 29.76422 114.80463 29.12962 114.80463 28.3468 C 114.80463 27.56398 114.17004 26.92938 113.38722 26.92938 C 112.60439 26.92938 111.9698 27.56398 111.9698 28.3468 C 111.9698 29.12962 112.60439 29.76422 113.38722 29.76422 C 114.17004 29.76422 114.80463 29.12962 114.80463 28.3468 "/>
<path transform="matrix(1,0,0,-1,16.658997,72.83301)" d="M 114.80464 42.5202 C 114.80464 43.30302 114.17006 43.93762 113.38724 43.93762 C 112.6044 43.93762 111.96982 43.30302 111.96982 42.5202 C 111.96982 41.73738 112.6044 41.10278 113.38724 41.10278 C 114.17006 41.10278 114.80464 41.73738 114.80464 42.5202 Z M 113.38724 42.5202 " fill="#ff0000"/>
<path transform="matrix(1,0,0,-1,16.658997,72.83301)" stroke-width=".3985" stroke-linecap="butt" stroke-miterlimit="10" stroke-linejoin="miter" fill="none" stroke="#ff0000" d="M 114.80464 42.5202 C 114.80464 43.30302 114.17006 43.93762 113.38724 43.93762 C 112.6044 43.93762 111.96982 43.30302 111.96982 42.5202 C 111.96982 41.73738 112.6044 41.10278 113.38724 41.10278 C 114.17006 41.10278 114.80464 41.73738 114.80464 42.5202 Z M 113.38724 42.5202 "/>
<path transform="matrix(1,0,0,-1,16.658997,72.83301)" stroke-width=".99628" stroke-linecap="butt" stroke-miterlimit="10" stroke-linejoin="miter" fill="none" stroke="#ff0000" d="M 113.38724 42.5202 L 126.1432 42.5202 C 126.1432 43.30302 126.77779 43.93762 127.56061 43.93762 C 128.34345 43.93762 128.97803 43.30302 128.97803 42.5202 C 128.97803 41.73738 128.34345 41.10278 127.56061 41.10278 C 126.77779 41.10278 126.1432 41.73738 126.1432 42.5202 C 126.1432 43.30302 126.77779 43.93762 127.56061 43.93762 C 128.34345 43.93762 128.97803 43.30302 128.97803 42.5202 "/>
<path transform="matrix(1,0,0,-1,16.658997,72.83301)" d="M 128.97805 56.69362 C 128.97805 57.47644 128.34346 58.11102 127.56062 58.11102 C 126.7778 58.11102 126.14322 57.47644 126.14322 56.69362 C 126.14322 55.91078 126.7778 55.2762 127.56062 55.2762 C 128.34346 55.2762 128.97805 55.91078 128.97805 56.69362 Z M 127.56062 56.69362 " fill="#ff0000"/>
<path transform="matrix(1,0,0,-1,16.658997,72.83301)" stroke-width=".3985" stroke-linecap="butt" stroke-miterlimit="10" stroke-linejoin="miter" fill="none" stroke="#ff0000" d="M 128.97805 56.69362 C 128.97805 57.47644 128.34346 58.11102 127.56062 58.11102 C 126.7778 58.11102 126.14322 57.47644 126.14322 56.69362 C 126.14322 55.91078 126.7778 55.2762 127.56062 55.2762 C 128.34346 55.2762 128.97805 55.91078 128.97805 56.69362 Z M 127.56062 56.69362 "/>
<path transform="matrix(1,0,0,-1,16.658997,72.83301)" stroke-width=".99628" stroke-linecap="butt" stroke-miterlimit="10" stroke-linejoin="miter" fill="none" stroke="#ff0000" d="M 127.56062 56.69362 L 140.3166 56.69362 C 140.3166 57.47644 140.9512 58.11102 141.73403 58.11102 C 142.51685 58.11102 143.15145 57.47644 143.15145 56.69362 C 143.15145 55.91078 142.51685 55.2762 141.73403 55.2762 C 140.9512 55.2762 140.3166 55.91078 140.3166 56.69362 C 140.3166 57.47644 140.9512 58.11102 141.73403 58.11102 C 142.51685 58.11102 143.15145 57.47644 143.15145 56.69362 "/>
</g>
</g>
</svg>
