<?xml version="1.0" encoding="UTF-8" standalone="no"?>
<!DOCTYPE svg PUBLIC "-//W3C//DTD SVG 1.1//EN" "http://www.w3.org/Graphics/SVG/1.1/DTD/svg11.dtd">
<svg xmlns="http://www.w3.org/2000/svg" xmlns:xlink="http://www.w3.org/1999/xlink" version="1.1" width="274.856pt" height="287.709pt" viewBox="0 0 274.856 287.709">
<g enable-background="new">
<clipPath id="cp0">
<path transform="matrix(1,0,0,-1,-146.326,669.402)" d="M 0 0 L 612 0 L 612 792 L 0 792 Z "/>
</clipPath>
<g clip-path="url(#cp0)">
<path transform="matrix(1,0,0,-1,2.4859925,285.76799)" stroke-width=".19925" stroke-linecap="butt" stroke-miterlimit="10" stroke-linejoin="miter" fill="none" stroke="#929292" stroke-opacity=".5" d="M 0 0 L 269.29469 0 M 0 14.17339 L 269.29469 14.17339 M 0 28.34679 L 269.29469 28.34679 M 0 42.52019 L 269.29469 42.52019 M 0 56.69359 L 269.29469 56.69359 M 0 70.86697 L 269.29469 70.86697 M 0 85.04037 L 269.29469 85.04037 M 0 99.21378 L 269.29469 99.21378 M 0 113.38718 L 269.29469 113.38718 M 0 127.56056 L 269.29469 127.56056 M 0 141.73397 L 269.29469 141.73397 M 0 155.90737 L 269.29469 155.90737 M 0 170.08077 L 269.29469 170.08077 M 0 184.25415 L 269.29469 184.25415 M 0 198.42755 L 269.29469 198.42755 M 0 212.60095 L 269.29469 212.60095 M 0 226.77436 L 269.29469 226.77436 M 0 240.94776 L 269.29469 240.94776 M 0 255.12114 L 269.29469 255.12114 M 0 269.29454 L 269.29469 269.29454 M 0 283.46794 L 269.29469 283.46794 M 0 0 L 0 283.4681 M 14.17339 0 L 14.17339 283.4681 M 28.34679 0 L 28.34679 283.4681 M 42.52019 0 L 42.52019 283.4681 M 56.69359 0 L 56.69359 283.4681 M 70.86697 0 L 70.86697 283.4681 M 85.04037 0 L 85.04037 283.4681 M 99.21378 0 L 99.21378 283.4681 M 113.38718 0 L 113.38718 283.4681 M 127.56056 0 L 127.56056 283.4681 M 141.73397 0 L 141.73397 283.4681 M 155.90737 0 L 155.90737 283.4681 M 170.08077 0 L 170.08077 283.4681 M 184.25415 0 L 184.25415 283.4681 M 198.42755 0 L 198.42755 283.4681 M 212.60095 0 L 212.60095 283.4681 M 226.77436 0 L 226.77436 283.4681 M 240.94776 0 L 240.94776 283.4681 M 255.12114 0 L 255.12114 283.4681 M 269.29454 0 L 269.29454 283.4681 M 269.29469 283.4681 "/>
<path transform="matrix(1,0,0,-1,2.4859925,285.76799)" stroke-width=".3985" stroke-linecap="butt" stroke-miterlimit="10" stroke-linejoin="miter" fill="none" stroke="#000000" d="M 14.63167 70.867 L 127.10236 70.867 "/>
<path transform="matrix(-1,-0,0,1,17.117663,214.90097)" stroke-width=".31879" stroke-linecap="round" stroke-linejoin="round" fill="none" stroke="#000000" d="M -1.19551 1.59401 C -1.09587 .99626 0 .09961 .29886 0 C 0 -.09961 -1.09587 -.99626 -1.19551 -1.59401 "/>
<path transform="matrix(1,0,0,-1,129.58835,214.90097)" stroke-width=".31879" stroke-linecap="round" stroke-linejoin="round" fill="none" stroke="#000000" d="M -1.19551 1.59401 C -1.09587 .99626 0 .09961 .29886 0 C 0 -.09961 -1.09587 -.99626 -1.19551 -1.59401 "/>
<text xml:space="preserve" transform="matrix(1 0 -0 1 -146.32599 669.402)" font-size="9.9626" font-family="CMMI10" font-style="italic"><tspan y="-446.691" x="273.524">x</tspan></text>
<path transform="matrix(1,0,0,-1,2.4859925,285.76799)" stroke-width=".3985" stroke-linecap="butt" stroke-miterlimit="10" stroke-linejoin="miter" fill="none" stroke="#000000" d="M 70.867 14.63167 L 70.867 127.10236 "/>
<path transform="matrix(0,1,1,0,73.35299,271.1363)" stroke-width=".31879" stroke-linecap="round" stroke-linejoin="round" fill="none" stroke="#000000" d="M -1.19551 1.59401 C -1.09587 .99626 0 .09961 .29886 0 C 0 -.09961 -1.09587 -.99626 -1.19551 -1.59401 "/>
<path transform="matrix(0,-1,-1,-0,73.35299,158.66562)" stroke-width=".31879" stroke-linecap="round" stroke-linejoin="round" fill="none" stroke="#000000" d="M -1.19551 1.59401 C -1.09587 .99626 0 .09961 .29886 0 C 0 -.09961 -1.09587 -.99626 -1.19551 -1.59401 "/>
<text xml:space="preserve" transform="matrix(1 0 -0 1 -146.326 669.402)" font-size="9.9626" font-family="CMMI10" font-style="italic"><tspan y="-510.017" x="210.916">y</tspan></text>
<path transform="matrix(1,0,0,-1,2.4859925,285.76799)" stroke-width=".3985" stroke-linecap="butt" stroke-miterlimit="10" stroke-linejoin="miter" fill="none" stroke="#000000" d="M 142.19232 70.867 L 254.66301 70.867 "/>
<path transform="matrix(-1,-0,0,1,144.67832,214.90097)" stroke-width=".31879" stroke-linecap="round" stroke-linejoin="round" fill="none" stroke="#000000" d="M -1.19551 1.59401 C -1.09587 .99626 0 .09961 .29886 0 C 0 -.09961 -1.09587 -.99626 -1.19551 -1.59401 "/>
<path transform="matrix(1,0,0,-1,257.149,214.90097)" stroke-width=".31879" stroke-linecap="round" stroke-linejoin="round" fill="none" stroke="#000000" d="M -1.19551 1.59401 C -1.09587 .99626 0 .09961 .29886 0 C 0 -.09961 -1.09587 -.99626 -1.19551 -1.59401 "/>
<text xml:space="preserve" transform="matrix(1 0 -0 1 -146.32602 669.402)" font-size="9.9626" font-family="CMMI10" font-style="italic"><tspan y="-446.691" x="401.083">x</tspan></text>
<path transform="matrix(1,0,0,-1,2.4859925,285.76799)" stroke-width=".3985" stroke-linecap="butt" stroke-miterlimit="10" stroke-linejoin="miter" fill="none" stroke="#000000" d="M 240.94788 14.63167 L 240.94788 127.10236 "/>
<path transform="matrix(0,1,1,0,243.43387,271.1363)" stroke-width=".31879" stroke-linecap="round" stroke-linejoin="round" fill="none" stroke="#000000" d="M -1.19551 1.59401 C -1.09587 .99626 0 .09961 .29886 0 C 0 -.09961 -1.09587 -.99626 -1.19551 -1.59401 "/>
<path transform="matrix(0,-1,-1,-0,243.43387,158.66562)" stroke-width=".31879" stroke-linecap="round" stroke-linejoin="round" fill="none" stroke="#000000" d="M -1.19551 1.59401 C -1.09587 .99626 0 .09961 .29886 0 C 0 -.09961 -1.09587 -.99626 -1.19551 -1.59401 "/>
<text xml:space="preserve" transform="matrix(1 0 -0 1 -146.326 669.402)" font-size="9.9626" font-family="CMMI10" font-style="italic"><tspan y="-510.017" x="380.995">y</tspan></text>
<path transform="matrix(1,0,0,-1,2.4859925,285.76799)" stroke-width=".3985" stroke-linecap="butt" stroke-miterlimit="10" stroke-linejoin="miter" fill="none" stroke="#000000" d="M 14.63167 212.60106 L 127.10236 212.60106 "/>
<path transform="matrix(-1,-0,0,1,17.117663,73.166919)" stroke-width=".31879" stroke-linecap="round" stroke-linejoin="round" fill="none" stroke="#000000" d="M -1.19551 1.59401 C -1.09587 .99626 0 .09961 .29886 0 C 0 -.09961 -1.09587 -.99626 -1.19551 -1.59401 "/>
<path transform="matrix(1,0,0,-1,129.58835,73.166919)" stroke-width=".31879" stroke-linecap="round" stroke-linejoin="round" fill="none" stroke="#000000" d="M -1.19551 1.59401 C -1.09587 .99626 0 .09961 .29886 0 C 0 -.09961 -1.09587 -.99626 -1.19551 -1.59401 "/>
<text xml:space="preserve" transform="matrix(1 0 -0 1 -146.32599 669.402)" font-size="9.9626" font-family="CMMI10" font-style="italic"><tspan y="-588.423" x="273.524">x</tspan></text>
<path transform="matrix(1,0,0,-1,2.4859925,285.76799)" stroke-width=".3985" stroke-linecap="butt" stroke-miterlimit="10" stroke-linejoin="miter" fill="none" stroke="#000000" d="M 70.867 156.36573 L 70.867 268.8364 "/>
<path transform="matrix(0,1,1,0,73.35299,129.40225)" stroke-width=".31879" stroke-linecap="round" stroke-linejoin="round" fill="none" stroke="#000000" d="M -1.19551 1.59401 C -1.09587 .99626 0 .09961 .29886 0 C 0 -.09961 -1.09587 -.99626 -1.19551 -1.59401 "/>
<path transform="matrix(0,-1,-1,-0,73.35299,16.93158)" stroke-width=".31879" stroke-linecap="round" stroke-linejoin="round" fill="none" stroke="#000000" d="M -1.19551 1.59401 C -1.09587 .99626 0 .09961 .29886 0 C 0 -.09961 -1.09587 -.99626 -1.19551 -1.59401 "/>
<text xml:space="preserve" transform="matrix(1 0 -0 1 -146.326 669.402)" font-size="9.9626" font-family="CMMI10" font-style="italic"><tspan y="-651.749" x="210.916">y</tspan></text>
<path transform="matrix(1,0,0,-1,2.4859925,285.76799)" stroke-width=".3985" stroke-linecap="butt" stroke-miterlimit="10" stroke-linejoin="miter" fill="none" stroke="#000000" d="M 142.19232 212.60106 L 254.66301 212.60106 "/>
<path transform="matrix(-1,-0,0,1,144.67832,73.166919)" stroke-width=".31879" stroke-linecap="round" stroke-linejoin="round" fill="none" stroke="#000000" d="M -1.19551 1.59401 C -1.09587 .99626 0 .09961 .29886 0 C 0 -.09961 -1.09587 -.99626 -1.19551 -1.59401 "/>
<path transform="matrix(1,0,0,-1,257.149,73.166919)" stroke-width=".31879" stroke-linecap="round" stroke-linejoin="round" fill="none" stroke="#000000" d="M -1.19551 1.59401 C -1.09587 .99626 0 .09961 .29886 0 C 0 -.09961 -1.09587 -.99626 -1.19551 -1.59401 "/>
<text xml:space="preserve" transform="matrix(1 0 -0 1 -146.32602 669.402)" font-size="9.9626" font-family="CMMI10" font-style="italic"><tspan y="-588.423" x="401.083">x</tspan></text>
<path transform="matrix(1,0,0,-1,2.4859925,285.76799)" stroke-width=".3985" stroke-linecap="butt" stroke-miterlimit="10" stroke-linejoin="miter" fill="none" stroke="#000000" d="M 198.42766 156.36573 L 198.42766 268.8364 "/>
<path transform="matrix(0,1,1,0,200.91365,129.40225)" stroke-width=".31879" stroke-linecap="round" stroke-linejoin="round" fill="none" stroke="#000000" d="M -1.19551 1.59401 C -1.09587 .99626 0 .09961 .29886 0 C 0 -.09961 -1.09587 -.99626 -1.19551 -1.59401 "/>
<path transform="matrix(0,-1,-1,-0,200.91365,16.93158)" stroke-width=".31879" stroke-linecap="round" stroke-linejoin="round" fill="none" stroke="#000000" d="M -1.19551 1.59401 C -1.09587 .99626 0 .09961 .29886 0 C 0 -.09961 -1.09587 -.99626 -1.19551 -1.59401 "/>
<text xml:space="preserve" transform="matrix(1 0 -0 1 -146.32602 669.402)" font-size="9.9626" font-family="CMMI10" font-style="italic"><tspan y="-651.749" x="338.475">y</tspan></text>
<path transform="matrix(1,0,0,-1,2.4859925,285.76799)" stroke-width=".3985" stroke-linecap="butt" stroke-miterlimit="10" stroke-linejoin="miter" fill="none" stroke="#000000" d="M 70.867 141.73404 "/>
<text xml:space="preserve" transform="matrix(1 0 -0 1 -146.326 669.402)" font-size="9.9626" font-family="CMMI10" font-style="italic"><tspan y="-528.886" x="217.097">I</tspan></text>
<path transform="matrix(1,0,0,-1,2.4859925,285.76799)" stroke-width=".3985" stroke-linecap="butt" stroke-miterlimit="10" stroke-linejoin="miter" fill="none" stroke="#000000" d="M 198.42766 141.73404 "/>
<text xml:space="preserve" transform="matrix(1 0 -0 1 -146.32599 669.402)" font-size="9.9626" font-family="CMMI10" font-style="italic"><tspan y="-528.886" x="342.076 347.2366">II</tspan></text>
<path transform="matrix(1,0,0,-1,2.4859925,285.76799)" stroke-width=".3985" stroke-linecap="butt" stroke-miterlimit="10" stroke-linejoin="miter" fill="none" stroke="#000000" d="M 70.867 0 "/>
<text xml:space="preserve" transform="matrix(1 0 -0 1 -146.32602 669.402)" font-size="9.9626" font-family="CMMI10" font-style="italic"><tspan y="-387.154" x="211.936 217.09664 222.26723">III</tspan></text>
<path transform="matrix(1,0,0,-1,2.4859925,285.76799)" stroke-width=".3985" stroke-linecap="butt" stroke-miterlimit="10" stroke-linejoin="miter" fill="none" stroke="#000000" d="M 198.42766 0 "/>
<text xml:space="preserve" transform="matrix(1 0 -0 1 -146.32602 669.402)" font-size="9.9626" font-family="CMMI10" font-style="italic"><tspan y="-387.154" x="340.644 345.80464">IV</tspan></text>
<path transform="matrix(1,0,0,-1,2.4859925,285.76799)" stroke-width="1.49442" stroke-linecap="butt" stroke-miterlimit="10" stroke-linejoin="miter" fill="none" stroke="#ff0000" d="M 24.66158 269.35133 L 25.55779 268.99235 L 26.45401 268.63117 L 27.35022 268.26826 L 28.24644 267.90364 L 29.14267 267.5373 L 30.0389 267.16835 L 30.9351 266.79808 L 31.83133 266.42524 L 32.72754 266.05064 L 33.62376 265.6739 L 34.51997 265.295 L 35.4162 264.91395 L 36.31241 264.5307 L 37.20863 264.14533 L 38.10484 263.75776 L 39.00107 263.3676 L 39.8973 262.9753 L 40.79352 262.58039 L 41.68973 262.18333 L 42.58595 261.78367 L 43.48216 261.38099 L 44.37839 260.9761 L 45.2746 260.5691 L 46.17082 260.15864 L 47.06703 259.74598 L 47.96326 259.3303 L 48.85947 258.9116 L 49.75569 258.48988 L 50.65192 258.06556 L 51.54814 257.6378 L 52.44435 257.2074 L 53.34058 256.77357 L 54.23679 256.33674 L 55.13301 255.89595 L 56.02922 255.45217 L 56.92545 255.00493 L 57.82166 254.55422 L 58.71788 254.10005 L 59.61409 253.64157 L 60.51033 253.17961 L 61.40654 252.71334 L 62.30276 252.24359 L 63.19897 251.7691 L 64.0952 251.29114 L 64.99141 250.80844 L 65.88763 250.32097 L 66.78384 249.82874 L 67.68007 249.33219 L 68.57628 248.83087 L 69.4725 248.32437 L 70.36871 247.81267 L 71.26495 247.29537 L 72.16116 246.77243 L 73.05739 246.2443 L 73.9536 245.71012 L 74.84982 245.16945 L 75.74603 244.62314 L 76.64226 244.06949 L 77.53847 243.50936 L 78.4347 242.9423 L 79.3309 242.36789 L 80.22713 241.78612 L 81.12334 241.19615 L 82.01958 240.59795 L 82.91579 239.9911 L 83.81201 239.3756 L 84.70822 238.75016 L 85.60445 238.11518 L 86.50066 237.46982 L 87.39688 236.81368 L 88.29309 236.14585 L 89.18932 235.46631 L 90.08553 234.77384 L 90.98175 234.06792 L 91.87796 233.34818 L 92.7742 232.61287 L 93.67043 231.86112 L 94.56664 231.09249 L 95.46286 230.30527 L 96.35907 229.49816 L 97.2553 228.66942 L 98.1515 227.8173 L 99.04773 226.94013 L 99.94394 226.03482 L 100.84016 225.09838 L 101.73637 224.1282 L 102.6326 223.11995 L 103.52882 222.06888 L 104.42505 220.9685 L 105.32126 219.8119 L 106.21748 218.58869 L 107.1137 217.28675 L 108.00992 215.88791 L 108.90613 214.36669 L 109.80235 212.68367 L 110.69856 210.77402 L 111.59479 208.50795 L 112.491 205.55545 L 113.38724 198.42766 "/>
<path transform="matrix(1,0,0,-1,2.4859925,285.76799)" stroke-width="1.49442" stroke-linecap="butt" stroke-miterlimit="10" stroke-linejoin="miter" fill="none" stroke="#ff0000" d="M 113.38724 198.42766 L 113.24535 200.41214 "/>
<path transform="matrix(1,0,0,-1,2.4859925,285.76799)" stroke-width="1.49442" stroke-linecap="butt" stroke-miterlimit="10" stroke-linejoin="miter" fill="none" stroke="#008080" d="M 155.90744 157.33957 L 156.76604 157.6908 L 157.6246 158.04375 L 158.4832 158.39929 L 159.3418 158.75614 L 160.20038 159.1147 L 161.05896 159.47545 L 161.91756 159.8379 L 162.77616 160.20255 L 163.63472 160.5689 L 164.49332 160.93785 L 165.35192 161.30854 L 166.2105 161.6814 L 167.06908 162.05597 L 167.92768 162.43358 L 168.78626 162.81291 L 169.64484 163.1944 L 170.50344 163.57849 L 171.36203 163.96477 L 172.22061 164.35317 L 173.0792 164.74463 L 173.93779 165.13823 L 174.79637 165.53444 L 175.65497 165.93323 L 176.51355 166.33463 L 177.37213 166.73862 L 178.23073 167.14522 L 179.08931 167.55481 L 179.94789 167.96746 L 180.80649 168.3827 L 181.66509 168.80052 L 182.52367 169.22226 L 183.38225 169.64658 L 184.24085 170.07436 L 185.09943 170.50518 L 185.95801 170.93943 L 186.8166 171.37715 L 187.6752 171.81792 L 188.53377 172.26256 L 189.39237 172.71112 L 190.25096 173.16312 L 191.10956 173.619 L 191.96813 174.0788 L 192.82672 174.54291 L 193.68532 175.01091 L 194.54389 175.48325 L 195.40248 175.9599 L 196.26108 176.44132 L 197.11966 176.92707 L 197.97824 177.41756 L 198.83684 177.91324 L 199.69542 178.41413 L 200.554 178.91976 L 201.4126 179.43146 L 202.2712 179.94789 L 203.12978 180.47084 L 203.98836 180.9994 L 204.84696 181.53403 L 205.70554 182.07556 L 206.56412 182.62358 L 207.42272 183.1781 L 208.2813 183.73996 L 209.1399 184.30918 L 209.99848 184.88619 L 210.85707 185.4714 L 211.71566 186.06485 L 212.57425 186.66695 L 213.43283 187.27899 L 214.29141 187.89969 L 215.15001 188.53075 L 216.00859 189.17264 L 216.86717 189.82578 L 217.72577 190.49015 L 218.58437 191.1675 L 219.44293 191.85784 L 220.30153 192.56201 L 221.16013 193.28089 L 222.0187 194.01534 L 222.87729 194.76709 L 223.73589 195.53656 L 224.59449 196.32596 L 225.45305 197.13611 L 226.31165 197.96874 L 227.17024 198.82602 L 228.02883 199.711 L 228.8874 200.62581 L 229.746 201.57395 L 230.6046 202.55883 L 231.46317 203.58567 L 232.32176 204.6601 L 233.18036 205.78945 L 234.03894 206.98326 L 234.89752 208.25362 L 235.75612 209.61827 L 236.6147 211.10102 L 237.47328 212.73947 L 238.33188 214.59636 L 239.19048 216.79279 L 240.04906 219.63585 L 240.90764 225.26406 "/>
<path transform="matrix(1,0,0,-1,2.4859925,285.76799)" stroke-width="1.49442" stroke-linecap="butt" stroke-miterlimit="10" stroke-linejoin="miter" fill="none" stroke="#008080" d="M 240.94788 226.77448 L 240.806 224.78998 "/>
<path transform="matrix(1,0,0,-1,2.4859925,285.76799)" stroke-width="1.49442" stroke-linecap="butt" stroke-miterlimit="10" stroke-linejoin="miter" fill="none" stroke="#800080" d="M 28.3468 85.04042 L 29.20538 78.06358 L 30.06396 75.17421 L 30.92256 72.9566 L 31.78114 71.08716 L 32.63974 69.43964 L 33.49832 67.95085 L 34.3569 66.58142 L 35.2155 65.30716 L 36.0741 64.1099 L 36.93266 62.97794 L 37.79126 61.90092 L 38.64986 60.87192 L 39.50844 59.8853 L 40.36702 58.93546 L 41.22562 58.01933 L 42.08421 57.13306 L 42.94278 56.27403 L 43.80138 55.44011 L 44.65997 54.6291 L 45.51854 53.8393 L 46.37714 53.0685 L 47.23573 52.31633 L 48.09433 51.58058 L 48.9529 50.86082 L 49.8115 50.15623 L 50.67009 49.46547 L 51.52867 48.78767 L 52.38725 48.12244 L 53.24585 47.46887 L 54.10443 46.82655 L 54.96301 46.19505 L 55.82161 45.57349 L 56.68019 44.96188 L 57.53879 44.35892 L 58.39737 43.76505 L 59.25597 43.17938 L 60.11455 42.60196 L 60.97313 42.03229 L 61.83173 41.47043 L 62.6903 40.91505 L 63.5489 40.36702 L 64.40749 39.82506 L 65.26607 39.29044 L 66.12466 38.76144 L 66.98326 38.2385 L 67.84184 37.72119 L 68.70042 37.20949 L 69.55902 36.70343 L 70.4176 36.20255 L 71.27618 35.70685 L 72.13478 35.21594 L 72.99338 34.72977 L 73.85194 34.24835 L 74.71054 33.77126 L 75.56914 33.2985 L 76.4277 32.83049 L 77.2863 32.36638 L 78.1449 31.90614 L 79.0035 31.45026 L 79.86206 30.99826 L 80.72066 30.54971 L 81.57925 30.10506 L 82.43782 29.66345 L 83.29642 29.22571 L 84.15501 28.79144 L 85.0136 28.36021 L 85.87218 27.93285 L 86.73077 27.5081 L 87.58937 27.08638 L 88.44795 26.6681 L 89.30653 26.25244 L 90.16513 25.84024 L 91.02371 25.43019 L 91.8823 25.0236 L 92.74089 24.61919 L 93.59947 24.21779 L 94.45807 23.81898 L 95.31665 23.42278 L 96.17523 23.02873 L 97.03383 22.63773 L 97.89241 22.24887 L 98.751 21.86261 L 99.60959 21.47852 L 100.46819 21.0966 L 101.32677 20.71727 L 102.18535 20.34009 L 103.04395 19.96507 L 103.90254 19.5918 L 104.76111 19.22112 L 105.6197 18.85214 L 106.4783 18.4858 L 107.33688 18.12115 L 108.19547 17.75826 L 109.05406 17.39754 L 109.91266 17.03853 L 110.77122 16.68167 L 111.62982 16.32657 L 112.48842 15.9736 L 113.34698 15.62195 "/>
<path transform="matrix(1,0,0,-1,2.4859925,285.76799)" stroke-width="1.49442" stroke-linecap="butt" stroke-miterlimit="10" stroke-linejoin="miter" fill="none" stroke="#008000" d="M 141.73404 28.3468 L 142.30628 28.63358 L 142.87853 28.92207 L 143.45078 29.21187 L 144.02303 29.5034 L 144.59526 29.79623 L 145.16751 30.09036 L 145.73976 30.38622 L 146.31201 30.6838 L 146.88426 30.98354 L 147.45652 31.28416 L 148.02877 31.58693 L 148.601 31.89145 L 149.17325 32.19725 L 149.7455 32.50522 L 150.31775 32.81491 L 150.89 33.12633 L 151.46225 33.43994 L 152.03449 33.75525 L 152.60674 34.0723 L 153.17899 34.39195 L 153.75124 34.71289 L 154.32349 35.03644 L 154.89574 35.3617 L 155.46799 35.68956 L 156.04022 36.01915 L 156.61248 36.35092 L 157.18473 36.6857 L 157.75698 37.0222 L 158.32923 37.36089 L 158.90148 37.70259 L 159.47371 38.04645 L 160.04596 38.39293 L 160.61821 38.74197 L 161.19046 39.09363 L 161.76271 39.44832 L 162.33496 39.8056 L 162.90721 40.16547 L 163.47945 40.52837 L 164.0517 40.89429 L 164.62395 41.26324 L 165.1962 41.63524 L 165.76845 42.01068 L 166.3407 42.38914 L 166.91295 42.7715 L 167.48519 43.15689 L 168.05744 43.54619 L 168.62969 43.93849 L 169.20194 44.33513 L 169.77419 44.73566 L 170.34642 45.14008 L 170.91866 45.54927 L 171.4909 45.9619 L 172.06316 46.3793 L 172.6354 46.80103 L 173.20766 47.22795 L 173.7799 47.65918 L 174.35216 48.09561 L 174.9244 48.53723 L 175.49665 48.98448 L 176.0689 49.43735 L 176.64115 49.89583 L 177.2134 50.36038 L 177.78565 50.8314 L 178.3579 51.30893 L 178.93013 51.79338 L 179.50238 52.28474 L 180.07463 52.78389 L 180.64688 53.29039 L 181.21913 53.80556 L 181.79138 54.32936 L 182.36362 54.86224 L 182.93587 55.40463 L 183.50812 55.95699 L 184.08037 56.52058 L 184.65262 57.095 L 185.22487 57.68153 L 185.79712 58.28102 L 186.36936 58.89436 L 186.9416 59.52197 L 187.51386 60.16602 L 188.0861 60.82693 L 188.65836 61.50645 L 189.2306 62.20587 L 189.80286 62.92778 L 190.37509 63.6739 L 190.94734 64.44728 L 191.51959 65.2505 L 192.09185 66.0879 L 192.6641 66.96378 L 193.23635 67.8851 L 193.80858 68.85786 L 194.38083 69.89337 L 194.95308 71.00542 L 195.52533 72.21307 L 196.09758 73.54701 L 196.66983 75.05788 L 197.24208 76.84209 L 197.81432 79.14406 L 198.38655 83.51399 "/>
<path transform="matrix(1,0,0,-1,2.4859925,285.76799)" stroke-width="1.49442" stroke-linecap="butt" stroke-miterlimit="10" stroke-linejoin="miter" fill="none" stroke="#008000" d="M 198.42766 85.04042 L 198.28578 83.05592 "/>
<text xml:space="preserve" transform="matrix(1 0 -0 1 -146.326 669.402)" font-size="9.9626" font-family="CMR10"><tspan y="-89.365" x="303.133">1</tspan></text>
</g>
</g>
</svg>
