<?xml version="1.0" encoding="UTF-8" standalone="no"?>
<!DOCTYPE svg PUBLIC "-//W3C//DTD SVG 1.1//EN" "http://www.w3.org/Graphics/SVG/1.1/DTD/svg11.dtd">
<svg xmlns="http://www.w3.org/2000/svg" xmlns:xlink="http://www.w3.org/1999/xlink" version="1.1" width="161.157pt" height="76.129pt" viewBox="0 0 161.157 76.129">
<g enable-background="new">
<clipPath id="cp0">
<path transform="matrix(1,0,0,-1,-146.326,669.402)" d="M 0 0 L 612 0 L 612 792 L 0 792 Z "/>
</clipPath>
<g clip-path="url(#cp0)">
<path transform="matrix(1,0,0,-1,2.4859925,73.16998)" stroke-width=".19925" stroke-linecap="butt" stroke-miterlimit="10" stroke-linejoin="miter" fill="none" stroke="#929292" d="M 0 0 L 155.90744 0 M 0 14.17339 L 155.90744 14.17339 M 0 28.34679 L 155.90744 28.34679 M 0 42.52019 L 155.90744 42.52019 M 0 56.69359 L 155.90744 56.69359 M 0 70.86697 L 155.90744 70.86697 M 0 0 L 0 70.867 M 14.17339 0 L 14.17339 70.867 M 28.34679 0 L 28.34679 70.867 M 42.52019 0 L 42.52019 70.867 M 56.69359 0 L 56.69359 70.867 M 70.86697 0 L 70.86697 70.867 M 85.04037 0 L 85.04037 70.867 M 99.21378 0 L 99.21378 70.867 M 113.38718 0 L 113.38718 70.867 M 127.56056 0 L 127.56056 70.867 M 141.73397 0 L 141.73397 70.867 M 155.90737 0 L 155.90737 70.867 M 155.90744 70.867 "/>
<path transform="matrix(1,0,0,-1,2.4859925,73.16998)" d="M 14.17339 14.17339 L 14.17339 56.69362 L 99.21382 56.69362 L 99.21382 14.17339 Z M 99.21382 56.69362 " fill="#dfbf9f"/>
<path transform="matrix(1,0,0,-1,2.4859925,73.16998)" stroke-width=".3985" stroke-linecap="butt" stroke-miterlimit="10" stroke-linejoin="miter" fill="none" stroke="#dfbf9f" d="M 14.17339 14.17339 L 14.17339 56.69362 L 99.21382 56.69362 L 99.21382 14.17339 Z M 99.21382 56.69362 "/>
<path transform="matrix(1,0,0,-1,2.4859925,73.16998)" stroke-width=".99628" stroke-linecap="butt" stroke-miterlimit="10" stroke-linejoin="miter" fill="none" stroke="#bf8040" d="M 14.17339 14.17339 L 14.17339 56.69362 L 99.21382 56.69362 L 99.21382 14.17339 Z M 99.21382 56.69362 "/>
<path transform="matrix(1,0,0,-1,2.4859925,73.16998)" stroke-width=".3985" stroke-linecap="butt" stroke-miterlimit="10" stroke-linejoin="miter" fill="none" stroke="#000000" d="M 56.69362 14.17339 "/>
<text xml:space="preserve" transform="matrix(1 0 -0 1 -146.326 669.402)" font-size="9.9626" font-family="CMR10"><tspan y="-600.465" x="196.15 201.13129">10</tspan></text>
<text xml:space="preserve" transform="matrix(1 0 -0 1 -146.326 669.402)" font-size="9.9626" font-family="CMMI10" font-style="italic"><tspan y="-600.465" x="206.11299">m</tspan></text>
<path transform="matrix(1,0,0,-1,2.4859925,73.16998)" stroke-width=".3985" stroke-linecap="butt" stroke-miterlimit="10" stroke-linejoin="miter" fill="none" stroke="#000000" d="M 8.50412 35.43349 "/>
<text xml:space="preserve" transform="matrix(0 -1 1 0 639.00106 205.12699)" font-size="9.9626" font-family="CMR10"><tspan y="-624.801" x="160.526">5</tspan></text>
<text xml:space="preserve" transform="matrix(0 -1 1 0 639.00106 205.12699)" font-size="9.9626" font-family="CMMI10" font-style="italic"><tspan y="-624.801" x="165.507">m</tspan></text>
<path transform="matrix(1,0,0,-1,2.4859925,73.16998)" stroke-width=".3985" stroke-linecap="butt" stroke-miterlimit="10" stroke-linejoin="miter" fill="none" stroke="#000000" d="M 141.73404 28.3468 "/>
<text xml:space="preserve" transform="matrix(1 0 -0 1 -146.32599 669.402)" font-size="9.9626" font-family="CMSY10" font-style="italic"><tspan y="-622.365" x="288.054">&#x2022;</tspan></text>
<path transform="matrix(1,0,0,-1,2.4859925,73.16998)" stroke-width=".69739" stroke-linecap="butt" stroke-miterlimit="10" stroke-linejoin="miter" fill="none" stroke="#000000" d="M 99.21382 14.17339 C 99.21382 14.17339 105.52109 28.3468 113.38722 28.3468 C 121.25334 28.3468 119.6945 14.17339 127.56062 14.17339 C 135.42676 14.17339 141.73403 28.3468 141.73403 28.3468 "/>
<path transform="matrix(1,0,0,-1,2.4859925,73.16998)" stroke-width=".3985" stroke-linecap="butt" stroke-miterlimit="10" stroke-linejoin="miter" fill="none" stroke="#000000" d="M 124.72578 22.67752 "/>
<text xml:space="preserve" transform="matrix(.34999 .60622 -.60622 .34999 -348.38783 101.943088)" font-size="9.9626" font-family="CMR10"><tspan y="-621.947" x="269.188">8</tspan></text>
<text xml:space="preserve" transform="matrix(.34999 .60622 -.60622 .34999 -348.38783 101.943088)" font-size="9.9626" font-family="CMMI10" font-style="italic"><tspan y="-621.947" x="274.16899">m</tspan></text>
<path transform="matrix(1,0,0,-1,2.4859925,73.16998)" stroke-width=".3985" stroke-linecap="butt" stroke-miterlimit="10" stroke-linejoin="miter" fill="none" stroke="#000000" d="M 141.73404 28.3468 "/>
<text xml:space="preserve" transform="matrix(.8 0 -0 .8 -89.819629 543.923)" font-size="9.9626" font-family="CMMI10" font-style="italic"><tspan y="-627.395" x="282.532 287.7225 292.9927 297.30653">vaca</tspan></text>
</g>
</g>
</svg>
