<?xml version="1.0" encoding="UTF-8" standalone="no"?>
<!DOCTYPE svg PUBLIC "-//W3C//DTD SVG 1.1//EN" "http://www.w3.org/Graphics/SVG/1.1/DTD/svg11.dtd">
<svg xmlns="http://www.w3.org/2000/svg" xmlns:xlink="http://www.w3.org/1999/xlink" version="1.1" width="209.603pt" height="66.242pt" viewBox="0 0 209.603 66.242">
<g enable-background="new">
<clipPath id="cp0">
<path transform="matrix(1,0,0,-1,-131.496,669.402)" d="M 0 0 L 612 0 L 612 792 L 0 792 Z "/>
</clipPath>
<g clip-path="url(#cp0)">
<path transform="matrix(1,0,0,-1,2.2720032,2.402954)" stroke-width=".398" stroke-linecap="butt" stroke-miterlimit="10" stroke-linejoin="miter" fill="none" stroke="#000000" d="M 0 0 L 204.622 0 "/>
<path transform="matrix(1,0,0,-1,2.2720032,14.557983)" stroke-width=".398" stroke-linecap="butt" stroke-miterlimit="10" stroke-linejoin="miter" fill="none" stroke="#000000" d="M 0 0 L 0 11.955 "/>
<text xml:space="preserve" transform="matrix(1 0 -0 1 -131.496 669.402)" font-size="9.9626" font-family="CMR10"><tspan y="-658.431" x="145.834 154.96971 159.951 163.85634 168.27974">Marca</tspan></text>
<path transform="matrix(1,0,0,-1,53.828996,14.557983)" stroke-width=".398" stroke-linecap="butt" stroke-miterlimit="10" stroke-linejoin="miter" fill="none" stroke="#000000" d="M 0 0 L 0 11.955 "/>
<text xml:space="preserve" transform="matrix(1 0 -0 1 -131.496 669.402)" font-size="9.9626" font-family="CMR10"><tspan y="-658.431" x="191.303 198.49599 203.47728 208.73754 212.61299 215.3826 220.9218 225.90309">Cantidad</tspan></text>
<path transform="matrix(1,0,0,-1,105.912,14.557983)" stroke-width=".398" stroke-linecap="butt" stroke-miterlimit="10" stroke-linejoin="miter" fill="none" stroke="#000000" d="M 0 0 L 0 11.955 "/>
<text xml:space="preserve" transform="matrix(1 0 -0 1 -131.496 669.402)" font-size="9.9626" font-family="CMR10"><tspan y="-658.431" x="243.385 250.16953 254.07486 258.49827 262.92167 265.69126 273.99009 279.80827 284.78956 292.01243 297.55165 303.09086 305.86045 311.39967 316.38096 321.92018 324.68977 329.67106">Precioporunidad[$]</tspan></text>
<path transform="matrix(1,0,0,-1,206.89402,14.557983)" stroke-width=".398" stroke-linecap="butt" stroke-miterlimit="10" stroke-linejoin="miter" fill="none" stroke="#000000" d="M 0 0 L 0 11.955 "/>
<path transform="matrix(1,0,0,-1,2.2720032,14.756958)" stroke-width=".398" stroke-linecap="butt" stroke-miterlimit="10" stroke-linejoin="miter" fill="none" stroke="#000000" d="M 0 0 L 204.622 0 "/>
<path transform="matrix(1,0,0,-1,2.2720032,26.91095)" stroke-width=".398" stroke-linecap="butt" stroke-miterlimit="10" stroke-linejoin="miter" fill="none" stroke="#000000" d="M 0 0 L 0 11.955 "/>
<text xml:space="preserve" transform="matrix(1 0 -0 1 -131.496 669.402)" font-size="9.9626" font-family="CMR10"><tspan y="-646.077" x="144.534 147.3036 154.08814 159.62734 164.60863 170.14783">iPhone</tspan></text>
<path transform="matrix(1,0,0,-1,53.828996,26.91095)" stroke-width=".398" stroke-linecap="butt" stroke-miterlimit="10" stroke-linejoin="miter" fill="none" stroke="#000000" d="M 0 0 L 0 11.955 "/>
<text xml:space="preserve" transform="matrix(1 0 -0 1 -131.496 669.402)" font-size="9.9626" font-family="CMR10"><tspan y="-646.077" x="208.876">1</tspan></text>
<path transform="matrix(1,0,0,-1,105.912,26.91095)" stroke-width=".398" stroke-linecap="butt" stroke-miterlimit="10" stroke-linejoin="miter" fill="none" stroke="#000000" d="M 0 0 L 0 11.955 "/>
<text xml:space="preserve" transform="matrix(1 0 -0 1 -131.496 669.402)" font-size="9.9626" font-family="CMR10"><tspan y="-646.077" x="280.427 285.4083 290.3896">700</tspan></text>
<path transform="matrix(1,0,0,-1,206.89402,26.91095)" stroke-width=".398" stroke-linecap="butt" stroke-miterlimit="10" stroke-linejoin="miter" fill="none" stroke="#000000" d="M 0 0 L 0 11.955 "/>
<path transform="matrix(1,0,0,-1,2.2720032,27.110962)" stroke-width=".398" stroke-linecap="butt" stroke-miterlimit="10" stroke-linejoin="miter" fill="none" stroke="#000000" d="M 0 0 L 204.622 0 "/>
<path transform="matrix(1,0,0,-1,2.2720032,39.264955)" stroke-width=".398" stroke-linecap="butt" stroke-miterlimit="10" stroke-linejoin="miter" fill="none" stroke="#000000" d="M 0 0 L 0 11.955 "/>
<text xml:space="preserve" transform="matrix(1 0 -0 1 -131.496 669.402)" font-size="9.9626" font-family="CMR10"><tspan y="-633.724" x="143.634 151.10596 156.64516 161.3475 168.26155 172.68495">Huawei</tspan></text>
<path transform="matrix(1,0,0,-1,53.828996,39.264955)" stroke-width=".398" stroke-linecap="butt" stroke-miterlimit="10" stroke-linejoin="miter" fill="none" stroke="#000000" d="M 0 0 L 0 11.955 "/>
<text xml:space="preserve" transform="matrix(1 0 -0 1 -131.496 669.402)" font-size="9.9626" font-family="CMR10"><tspan y="-633.724" x="208.876">2</tspan></text>
<path transform="matrix(1,0,0,-1,105.912,39.264955)" stroke-width=".398" stroke-linecap="butt" stroke-miterlimit="10" stroke-linejoin="miter" fill="none" stroke="#000000" d="M 0 0 L 0 11.955 "/>
<text xml:space="preserve" transform="matrix(1 0 -0 1 -131.496 669.402)" font-size="9.9626" font-family="CMR10"><tspan y="-633.724" x="280.427 285.4083 290.3896">400</tspan></text>
<path transform="matrix(1,0,0,-1,206.89402,39.264955)" stroke-width=".398" stroke-linecap="butt" stroke-miterlimit="10" stroke-linejoin="miter" fill="none" stroke="#000000" d="M 0 0 L 0 11.955 "/>
<path transform="matrix(1,0,0,-1,2.2720032,39.46399)" stroke-width=".398" stroke-linecap="butt" stroke-miterlimit="10" stroke-linejoin="miter" fill="none" stroke="#000000" d="M 0 0 L 204.622 0 "/>
<path transform="matrix(1,0,0,-1,2.2720032,51.618959)" stroke-width=".398" stroke-linecap="butt" stroke-miterlimit="10" stroke-linejoin="miter" fill="none" stroke="#000000" d="M 0 0 L 0 11.955 "/>
<text xml:space="preserve" transform="matrix(1 0 -0 1 -131.496 669.402)" font-size="9.9626" font-family="CMR10"><tspan y="-621.37" x="139.746 148.88172 153.863 157.73847 162.71976 166.62509 171.60639 174.37599">Motorola</tspan></text>
<path transform="matrix(1,0,0,-1,53.828996,51.618959)" stroke-width=".398" stroke-linecap="butt" stroke-miterlimit="10" stroke-linejoin="miter" fill="none" stroke="#000000" d="M 0 0 L 0 11.955 "/>
<text xml:space="preserve" transform="matrix(1 0 -0 1 -131.496 669.402)" font-size="9.9626" font-family="CMR10"><tspan y="-621.37" x="208.876">7</tspan></text>
<path transform="matrix(1,0,0,-1,105.912,51.618959)" stroke-width=".398" stroke-linecap="butt" stroke-miterlimit="10" stroke-linejoin="miter" fill="none" stroke="#000000" d="M 0 0 L 0 11.955 "/>
<text xml:space="preserve" transform="matrix(1 0 -0 1 -131.496 669.402)" font-size="9.9626" font-family="CMR10"><tspan y="-621.37" x="280.427 285.4083 290.3896">300</tspan></text>
<path transform="matrix(1,0,0,-1,206.89402,51.618959)" stroke-width=".398" stroke-linecap="butt" stroke-miterlimit="10" stroke-linejoin="miter" fill="none" stroke="#000000" d="M 0 0 L 0 11.955 "/>
<path transform="matrix(1,0,0,-1,2.2720032,51.817995)" stroke-width=".398" stroke-linecap="butt" stroke-miterlimit="10" stroke-linejoin="miter" fill="none" stroke="#000000" d="M 0 0 L 204.622 0 "/>
<path transform="matrix(1,0,0,-1,2.2720032,63.971986)" stroke-width=".398" stroke-linecap="butt" stroke-miterlimit="10" stroke-linejoin="miter" fill="none" stroke="#000000" d="M 0 0 L 0 11.955 "/>
<text xml:space="preserve" transform="matrix(1 0 -0 1 -131.496 669.402)" font-size="9.9626" font-family="CMR10"><tspan y="-609.016" x="140.147 145.6862 150.6675 158.96634 162.8916 168.4308 173.97">Samsung</tspan></text>
<path transform="matrix(1,0,0,-1,53.828996,63.971986)" stroke-width=".398" stroke-linecap="butt" stroke-miterlimit="10" stroke-linejoin="miter" fill="none" stroke="#000000" d="M 0 0 L 0 11.955 "/>
<text xml:space="preserve" transform="matrix(1 0 -0 1 -131.496 669.402)" font-size="9.9626" font-family="CMR10"><tspan y="-609.016" x="208.876">5</tspan></text>
<path transform="matrix(1,0,0,-1,105.912,63.971986)" stroke-width=".398" stroke-linecap="butt" stroke-miterlimit="10" stroke-linejoin="miter" fill="none" stroke="#000000" d="M 0 0 L 0 11.955 "/>
<text xml:space="preserve" transform="matrix(1 0 -0 1 -131.496 669.402)" font-size="9.9626" font-family="CMR10"><tspan y="-609.016" x="280.427 285.4083 290.3896">360</tspan></text>
<path transform="matrix(1,0,0,-1,206.89402,63.971986)" stroke-width=".398" stroke-linecap="butt" stroke-miterlimit="10" stroke-linejoin="miter" fill="none" stroke="#000000" d="M 0 0 L 0 11.955 "/>
<path transform="matrix(1,0,0,-1,2.2720032,64.172)" stroke-width=".398" stroke-linecap="butt" stroke-miterlimit="10" stroke-linejoin="miter" fill="none" stroke="#000000" d="M 0 0 L 204.622 0 "/>
</g>
</g>
</svg>
