<?xml version="1.0" encoding="UTF-8" standalone="no"?>
<!DOCTYPE svg PUBLIC "-//W3C//DTD SVG 1.1//EN" "http://www.w3.org/Graphics/SVG/1.1/DTD/svg11.dtd">
<svg xmlns="http://www.w3.org/2000/svg" xmlns:xlink="http://www.w3.org/1999/xlink" version="1.1" width="89.971pt" height="103.813pt" viewBox="0 0 89.971 103.813">
<g enable-background="new">
<clipPath id="cp0">
<path transform="matrix(1,0,0,-1,-146.326,668.414)" d="M 0 0 L 612 0 L 612 792 L 0 792 Z "/>
</clipPath>
<g clip-path="url(#cp0)">
<path transform="matrix(1,0,0,-1,2.4859925,101.83801)" stroke-width=".19925" stroke-linecap="butt" stroke-miterlimit="10" stroke-linejoin="miter" fill="none" stroke="#929292" d="M 0 0 L 85.04042 0 M 0 14.17339 L 85.04042 14.17339 M 0 28.34679 L 85.04042 28.34679 M 0 42.52019 L 85.04042 42.52019 M 0 56.69359 L 85.04042 56.69359 M 0 70.86697 L 85.04042 70.86697 M 0 85.04037 L 85.04042 85.04037 M 0 99.21378 L 85.04042 99.21378 M 0 0 L 0 99.21382 M 14.17339 0 L 14.17339 99.21382 M 28.34679 0 L 28.34679 99.21382 M 42.52019 0 L 42.52019 99.21382 M 56.69359 0 L 56.69359 99.21382 M 70.86697 0 L 70.86697 99.21382 M 85.04037 0 L 85.04037 99.21382 M 85.04042 99.21382 "/>
<g>
<path transform="matrix(1,0,0,-1,2.4859925,101.83801)" d="M 14.17339 28.3468 C 14.17339 12.69109 26.86449 0 42.5202 0 C 58.17592 0 70.867 12.69109 70.867 28.3468 L 56.69362 85.04042 C 56.69362 92.86827 50.34807 99.21382 42.52022 99.21382 C 34.69237 99.21382 28.34682 92.86827 28.34682 85.04042 L 14.17339 28.3468 Z " fill="#00aeef" fill-opacity=".5"/>
<path transform="matrix(1,0,0,-1,2.4859925,101.83801)" stroke-width=".3985" stroke-linecap="butt" stroke-miterlimit="10" stroke-linejoin="miter" fill="none" stroke="#00aeef" stroke-opacity=".5" d="M 14.17339 28.3468 C 14.17339 12.69109 26.86449 0 42.5202 0 C 58.17592 0 70.867 12.69109 70.867 28.3468 L 56.69362 85.04042 C 56.69362 92.86827 50.34807 99.21382 42.52022 99.21382 C 34.69237 99.21382 28.34682 92.86827 28.34682 85.04042 L 14.17339 28.3468 Z "/>
</g>
<path transform="matrix(1,0,0,-1,2.4859925,101.83801)" stroke-width=".3985" stroke-linecap="butt" stroke-miterlimit="10" stroke-linejoin="miter" fill="none" stroke="#929292" d="M 14.17339 28.3468 C 14.17339 12.69109 26.86449 0 42.5202 0 C 58.17592 0 70.867 12.69109 70.867 28.3468 L 56.69362 85.04042 C 56.69362 92.86827 50.34807 99.21382 42.52022 99.21382 C 34.69237 99.21382 28.34682 92.86827 28.34682 85.04042 L 14.17339 28.3468 Z "/>
<path transform="matrix(1,0,0,-1,2.4859925,101.83801)" stroke-width=".3985" stroke-linecap="butt" stroke-dasharray="2.98883,2.98883" stroke-miterlimit="10" stroke-linejoin="miter" fill="none" stroke="#000000" d="M 42.5202 28.3468 L 62.56444 8.30257 "/>
<path transform="matrix(1,0,0,-1,2.4859925,101.83801)" stroke-width=".3985" stroke-linecap="butt" stroke-miterlimit="10" stroke-linejoin="miter" fill="none" stroke="#000000" d="M 53.57544 21.2601 "/>
<text xml:space="preserve" transform="matrix(.42426 .42426 -.42426 .42426 -284.2893 244.73076)" font-size="9.9626" font-family="CMR10"><tspan y="-591.358" x="196.141 201.1223">40</tspan></text>
<text xml:space="preserve" transform="matrix(.42426 .42426 -.42426 .42426 -284.2893 244.73076)" font-size="9.9626" font-family="CMMI10" font-style="italic"><tspan y="-591.358" x="206.104 210.41782">cm</tspan></text>
<path transform="matrix(1,0,0,-1,2.4859925,101.83801)" stroke-width=".3985" stroke-linecap="butt" stroke-dasharray="2.98883,2.98883" stroke-miterlimit="10" stroke-linejoin="miter" fill="none" stroke="#000000" d="M 28.3468 85.04042 L 70.867 28.3468 "/>
<path transform="matrix(1,0,0,-1,2.4859925,101.83801)" stroke-width=".3985" stroke-linecap="butt" stroke-miterlimit="10" stroke-linejoin="miter" fill="none" stroke="#000000" d="M 48.47322 62.64664 "/>
<text xml:space="preserve" transform="matrix(.35999 .47998 -.47998 .35999 -325.67 171.56949)" font-size="9.9626" font-family="CMR10"><tspan y="-631.361" x="193.273">1</tspan></text>
<text xml:space="preserve" transform="matrix(.35999 .47998 -.47998 .35999 -325.67 171.56949)" font-size="9.9626" font-family="CMMI10" font-style="italic"><tspan y="-631.361" x="198.254">m</tspan></text>
<path transform="matrix(1,0,0,-1,2.4859925,101.83801)" stroke-width=".3985" stroke-linecap="butt" stroke-dasharray="2.98883,2.98883" stroke-miterlimit="10" stroke-linejoin="miter" fill="none" stroke="#000000" d="M 42.5202 85.04042 L 52.5421 95.06233 "/>
<path transform="matrix(1,0,0,-1,2.4859925,101.83801)" stroke-width=".3985" stroke-linecap="butt" stroke-miterlimit="10" stroke-linejoin="miter" fill="none" stroke="#000000" d="M 45.35506 91.56006 "/>
<text xml:space="preserve" transform="matrix(.42426 -.42426 .42426 .42426 240.0068 373.97795)" font-size="9.9626" font-family="CMR10"><tspan y="-651.89" x="190.645 195.6263">20</tspan></text>
<text xml:space="preserve" transform="matrix(.42426 -.42426 .42426 .42426 240.0068 373.97795)" font-size="9.9626" font-family="CMMI10" font-style="italic"><tspan y="-651.89" x="200.608 204.92182">cm</tspan></text>
</g>
</g>
</svg>
