<?xml version="1.0" encoding="UTF-8" standalone="no"?>
<!DOCTYPE svg PUBLIC "-//W3C//DTD SVG 1.1//EN" "http://www.w3.org/Graphics/SVG/1.1/DTD/svg11.dtd">
<svg xmlns="http://www.w3.org/2000/svg" xmlns:xlink="http://www.w3.org/1999/xlink" version="1.1" width="202.682pt" height="76.129pt" viewBox="0 0 202.682 76.129">
<g enable-background="new">
<clipPath id="cp0">
<path transform="matrix(1,0,0,-1,-146.326,669.402)" d="M 0 0 L 612 0 L 612 792 L 0 792 Z "/>
</clipPath>
<g clip-path="url(#cp0)">
<path transform="matrix(1,0,0,-1,2.4859925,73.16998)" stroke-width=".19925" stroke-linecap="butt" stroke-miterlimit="10" stroke-linejoin="miter" fill="none" stroke="#929292" d="M 0 0 L 198.42766 0 M 0 14.17339 L 198.42766 14.17339 M 0 28.34679 L 198.42766 28.34679 M 0 42.52019 L 198.42766 42.52019 M 0 56.69359 L 198.42766 56.69359 M 0 70.86697 L 198.42766 70.86697 M 0 0 L 0 70.867 M 14.17339 0 L 14.17339 70.867 M 28.34679 0 L 28.34679 70.867 M 42.52019 0 L 42.52019 70.867 M 56.69359 0 L 56.69359 70.867 M 70.86697 0 L 70.86697 70.867 M 85.04037 0 L 85.04037 70.867 M 99.21378 0 L 99.21378 70.867 M 113.38718 0 L 113.38718 70.867 M 127.56056 0 L 127.56056 70.867 M 141.73397 0 L 141.73397 70.867 M 155.90737 0 L 155.90737 70.867 M 170.08077 0 L 170.08077 70.867 M 184.25415 0 L 184.25415 70.867 M 198.42755 0 L 198.42755 70.867 M 198.42766 70.867 "/>
<path transform="matrix(1,0,0,-1,2.4859925,73.16998)" d="M 14.17339 14.17339 L 14.17339 28.3468 L 28.3468 28.3468 L 28.3468 14.17339 Z M 28.3468 28.3468 " fill="#00ff00"/>
<path transform="matrix(1,0,0,-1,2.4859925,73.16998)" stroke-width=".3985" stroke-linecap="butt" stroke-miterlimit="10" stroke-linejoin="miter" fill="none" stroke="#00ff00" d="M 14.17339 14.17339 L 14.17339 28.3468 L 28.3468 28.3468 L 28.3468 14.17339 Z M 28.3468 28.3468 "/>
<path transform="matrix(1,0,0,-1,2.4859925,73.16998)" stroke-width=".3985" stroke-linecap="butt" stroke-miterlimit="10" stroke-linejoin="miter" fill="none" stroke="#000000" d="M 14.17339 14.17339 L 14.17339 28.3468 L 28.3468 28.3468 L 28.3468 14.17339 Z M 28.3468 28.3468 "/>
<path transform="matrix(1,0,0,-1,2.4859925,73.16998)" d="M 56.69362 14.17339 L 56.69362 28.3468 L 70.867 28.3468 L 70.867 14.17339 Z M 70.867 28.3468 " fill="#00ff00"/>
<path transform="matrix(1,0,0,-1,2.4859925,73.16998)" stroke-width=".3985" stroke-linecap="butt" stroke-miterlimit="10" stroke-linejoin="miter" fill="none" stroke="#00ff00" d="M 56.69362 14.17339 L 56.69362 28.3468 L 70.867 28.3468 L 70.867 14.17339 Z M 70.867 28.3468 "/>
<path transform="matrix(1,0,0,-1,2.4859925,73.16998)" stroke-width=".3985" stroke-linecap="butt" stroke-miterlimit="10" stroke-linejoin="miter" fill="none" stroke="#000000" d="M 56.69362 14.17339 L 56.69362 28.3468 L 70.867 28.3468 L 70.867 14.17339 Z M 70.867 28.3468 "/>
<path transform="matrix(1,0,0,-1,2.4859925,73.16998)" d="M 70.867 14.17339 L 70.867 28.3468 L 85.04042 28.3468 L 85.04042 14.17339 Z M 85.04042 28.3468 " fill="#00ff00"/>
<path transform="matrix(1,0,0,-1,2.4859925,73.16998)" stroke-width=".3985" stroke-linecap="butt" stroke-miterlimit="10" stroke-linejoin="miter" fill="none" stroke="#00ff00" d="M 70.867 14.17339 L 70.867 28.3468 L 85.04042 28.3468 L 85.04042 14.17339 Z M 85.04042 28.3468 "/>
<path transform="matrix(1,0,0,-1,2.4859925,73.16998)" stroke-width=".3985" stroke-linecap="butt" stroke-miterlimit="10" stroke-linejoin="miter" fill="none" stroke="#000000" d="M 70.867 14.17339 L 70.867 28.3468 L 85.04042 28.3468 L 85.04042 14.17339 Z M 85.04042 28.3468 "/>
<path transform="matrix(1,0,0,-1,2.4859925,73.16998)" d="M 85.04042 14.17339 L 85.04042 28.3468 L 99.21382 28.3468 L 99.21382 14.17339 Z M 99.21382 28.3468 " fill="#00ff00"/>
<path transform="matrix(1,0,0,-1,2.4859925,73.16998)" stroke-width=".3985" stroke-linecap="butt" stroke-miterlimit="10" stroke-linejoin="miter" fill="none" stroke="#00ff00" d="M 85.04042 14.17339 L 85.04042 28.3468 L 99.21382 28.3468 L 99.21382 14.17339 Z M 99.21382 28.3468 "/>
<path transform="matrix(1,0,0,-1,2.4859925,73.16998)" stroke-width=".3985" stroke-linecap="butt" stroke-miterlimit="10" stroke-linejoin="miter" fill="none" stroke="#000000" d="M 85.04042 14.17339 L 85.04042 28.3468 L 99.21382 28.3468 L 99.21382 14.17339 Z M 99.21382 28.3468 "/>
<path transform="matrix(1,0,0,-1,2.4859925,73.16998)" d="M 56.69362 28.3468 L 56.69362 42.5202 L 70.867 42.5202 L 70.867 28.3468 Z M 70.867 42.5202 " fill="#00ff00"/>
<path transform="matrix(1,0,0,-1,2.4859925,73.16998)" stroke-width=".3985" stroke-linecap="butt" stroke-miterlimit="10" stroke-linejoin="miter" fill="none" stroke="#00ff00" d="M 56.69362 28.3468 L 56.69362 42.5202 L 70.867 42.5202 L 70.867 28.3468 Z M 70.867 42.5202 "/>
<path transform="matrix(1,0,0,-1,2.4859925,73.16998)" stroke-width=".3985" stroke-linecap="butt" stroke-miterlimit="10" stroke-linejoin="miter" fill="none" stroke="#000000" d="M 56.69362 28.3468 L 56.69362 42.5202 L 70.867 42.5202 L 70.867 28.3468 Z M 70.867 42.5202 "/>
<path transform="matrix(1,0,0,-1,2.4859925,73.16998)" d="M 85.04042 28.3468 L 85.04042 42.5202 L 99.21382 42.5202 L 99.21382 28.3468 Z M 99.21382 42.5202 " fill="#00ff00"/>
<path transform="matrix(1,0,0,-1,2.4859925,73.16998)" stroke-width=".3985" stroke-linecap="butt" stroke-miterlimit="10" stroke-linejoin="miter" fill="none" stroke="#00ff00" d="M 85.04042 28.3468 L 85.04042 42.5202 L 99.21382 42.5202 L 99.21382 28.3468 Z M 99.21382 42.5202 "/>
<path transform="matrix(1,0,0,-1,2.4859925,73.16998)" stroke-width=".3985" stroke-linecap="butt" stroke-miterlimit="10" stroke-linejoin="miter" fill="none" stroke="#000000" d="M 85.04042 28.3468 L 85.04042 42.5202 L 99.21382 42.5202 L 99.21382 28.3468 Z M 99.21382 42.5202 "/>
<path transform="matrix(1,0,0,-1,2.4859925,73.16998)" d="M 127.56062 14.17339 L 127.56062 28.3468 L 141.73404 28.3468 L 141.73404 14.17339 Z M 141.73404 28.3468 " fill="#00ff00"/>
<path transform="matrix(1,0,0,-1,2.4859925,73.16998)" stroke-width=".3985" stroke-linecap="butt" stroke-miterlimit="10" stroke-linejoin="miter" fill="none" stroke="#00ff00" d="M 127.56062 14.17339 L 127.56062 28.3468 L 141.73404 28.3468 L 141.73404 14.17339 Z M 141.73404 28.3468 "/>
<path transform="matrix(1,0,0,-1,2.4859925,73.16998)" stroke-width=".3985" stroke-linecap="butt" stroke-miterlimit="10" stroke-linejoin="miter" fill="none" stroke="#000000" d="M 127.56062 14.17339 L 127.56062 28.3468 L 141.73404 28.3468 L 141.73404 14.17339 Z M 141.73404 28.3468 "/>
<path transform="matrix(1,0,0,-1,2.4859925,73.16998)" d="M 141.73404 14.17339 L 141.73404 28.3468 L 155.90744 28.3468 L 155.90744 14.17339 Z M 155.90744 28.3468 " fill="#00ff00"/>
<path transform="matrix(1,0,0,-1,2.4859925,73.16998)" stroke-width=".3985" stroke-linecap="butt" stroke-miterlimit="10" stroke-linejoin="miter" fill="none" stroke="#00ff00" d="M 141.73404 14.17339 L 141.73404 28.3468 L 155.90744 28.3468 L 155.90744 14.17339 Z M 155.90744 28.3468 "/>
<path transform="matrix(1,0,0,-1,2.4859925,73.16998)" stroke-width=".3985" stroke-linecap="butt" stroke-miterlimit="10" stroke-linejoin="miter" fill="none" stroke="#000000" d="M 141.73404 14.17339 L 141.73404 28.3468 L 155.90744 28.3468 L 155.90744 14.17339 Z M 155.90744 28.3468 "/>
<path transform="matrix(1,0,0,-1,2.4859925,73.16998)" d="M 155.90744 14.17339 L 155.90744 28.3468 L 170.08086 28.3468 L 170.08086 14.17339 Z M 170.08086 28.3468 " fill="#00ff00"/>
<path transform="matrix(1,0,0,-1,2.4859925,73.16998)" stroke-width=".3985" stroke-linecap="butt" stroke-miterlimit="10" stroke-linejoin="miter" fill="none" stroke="#00ff00" d="M 155.90744 14.17339 L 155.90744 28.3468 L 170.08086 28.3468 L 170.08086 14.17339 Z M 170.08086 28.3468 "/>
<path transform="matrix(1,0,0,-1,2.4859925,73.16998)" stroke-width=".3985" stroke-linecap="butt" stroke-miterlimit="10" stroke-linejoin="miter" fill="none" stroke="#000000" d="M 155.90744 14.17339 L 155.90744 28.3468 L 170.08086 28.3468 L 170.08086 14.17339 Z M 170.08086 28.3468 "/>
<path transform="matrix(1,0,0,-1,2.4859925,73.16998)" d="M 170.08086 14.17339 L 170.08086 28.3468 L 184.25424 28.3468 L 184.25424 14.17339 Z M 184.25424 28.3468 " fill="#00ff00"/>
<path transform="matrix(1,0,0,-1,2.4859925,73.16998)" stroke-width=".3985" stroke-linecap="butt" stroke-miterlimit="10" stroke-linejoin="miter" fill="none" stroke="#00ff00" d="M 170.08086 14.17339 L 170.08086 28.3468 L 184.25424 28.3468 L 184.25424 14.17339 Z M 184.25424 28.3468 "/>
<path transform="matrix(1,0,0,-1,2.4859925,73.16998)" stroke-width=".3985" stroke-linecap="butt" stroke-miterlimit="10" stroke-linejoin="miter" fill="none" stroke="#000000" d="M 170.08086 14.17339 L 170.08086 28.3468 L 184.25424 28.3468 L 184.25424 14.17339 Z M 184.25424 28.3468 "/>
<path transform="matrix(1,0,0,-1,2.4859925,73.16998)" d="M 127.56062 28.3468 L 127.56062 42.5202 L 141.73404 42.5202 L 141.73404 28.3468 Z M 141.73404 42.5202 " fill="#00ff00"/>
<path transform="matrix(1,0,0,-1,2.4859925,73.16998)" stroke-width=".3985" stroke-linecap="butt" stroke-miterlimit="10" stroke-linejoin="miter" fill="none" stroke="#00ff00" d="M 127.56062 28.3468 L 127.56062 42.5202 L 141.73404 42.5202 L 141.73404 28.3468 Z M 141.73404 42.5202 "/>
<path transform="matrix(1,0,0,-1,2.4859925,73.16998)" stroke-width=".3985" stroke-linecap="butt" stroke-miterlimit="10" stroke-linejoin="miter" fill="none" stroke="#000000" d="M 127.56062 28.3468 L 127.56062 42.5202 L 141.73404 42.5202 L 141.73404 28.3468 Z M 141.73404 42.5202 "/>
<path transform="matrix(1,0,0,-1,2.4859925,73.16998)" d="M 127.56062 42.5202 L 127.56062 56.69362 L 141.73404 56.69362 L 141.73404 42.5202 Z M 141.73404 56.69362 " fill="#00ff00"/>
<path transform="matrix(1,0,0,-1,2.4859925,73.16998)" stroke-width=".3985" stroke-linecap="butt" stroke-miterlimit="10" stroke-linejoin="miter" fill="none" stroke="#00ff00" d="M 127.56062 42.5202 L 127.56062 56.69362 L 141.73404 56.69362 L 141.73404 42.5202 Z M 141.73404 56.69362 "/>
<path transform="matrix(1,0,0,-1,2.4859925,73.16998)" stroke-width=".3985" stroke-linecap="butt" stroke-miterlimit="10" stroke-linejoin="miter" fill="none" stroke="#000000" d="M 127.56062 42.5202 L 127.56062 56.69362 L 141.73404 56.69362 L 141.73404 42.5202 Z M 141.73404 56.69362 "/>
<path transform="matrix(1,0,0,-1,2.4859925,73.16998)" d="M 170.08086 28.3468 L 170.08086 42.5202 L 184.25424 42.5202 L 184.25424 28.3468 Z M 184.25424 42.5202 " fill="#00ff00"/>
<path transform="matrix(1,0,0,-1,2.4859925,73.16998)" stroke-width=".3985" stroke-linecap="butt" stroke-miterlimit="10" stroke-linejoin="miter" fill="none" stroke="#00ff00" d="M 170.08086 28.3468 L 170.08086 42.5202 L 184.25424 42.5202 L 184.25424 28.3468 Z M 184.25424 42.5202 "/>
<path transform="matrix(1,0,0,-1,2.4859925,73.16998)" stroke-width=".3985" stroke-linecap="butt" stroke-miterlimit="10" stroke-linejoin="miter" fill="none" stroke="#000000" d="M 170.08086 28.3468 L 170.08086 42.5202 L 184.25424 42.5202 L 184.25424 28.3468 Z M 184.25424 42.5202 "/>
<path transform="matrix(1,0,0,-1,2.4859925,73.16998)" d="M 170.08086 42.5202 L 170.08086 56.69362 L 184.25424 56.69362 L 184.25424 42.5202 Z M 184.25424 56.69362 " fill="#00ff00"/>
<path transform="matrix(1,0,0,-1,2.4859925,73.16998)" stroke-width=".3985" stroke-linecap="butt" stroke-miterlimit="10" stroke-linejoin="miter" fill="none" stroke="#00ff00" d="M 170.08086 42.5202 L 170.08086 56.69362 L 184.25424 56.69362 L 184.25424 42.5202 Z M 184.25424 56.69362 "/>
<path transform="matrix(1,0,0,-1,2.4859925,73.16998)" stroke-width=".3985" stroke-linecap="butt" stroke-miterlimit="10" stroke-linejoin="miter" fill="none" stroke="#000000" d="M 170.08086 42.5202 L 170.08086 56.69362 L 184.25424 56.69362 L 184.25424 42.5202 Z M 184.25424 56.69362 "/>
<path transform="matrix(1,0,0,-1,2.4859925,73.16998)" stroke-width=".3985" stroke-linecap="butt" stroke-miterlimit="10" stroke-linejoin="miter" fill="none" stroke="#000000" d="M 15.30708 14.17339 "/>
<text xml:space="preserve" transform="matrix(1 0 -0 1 -146.32602 669.402)" font-size="9.9626" font-family="CMR10"><tspan y="-600.465" x="167.639">1</tspan></text>
<path transform="matrix(1,0,0,-1,2.4859925,73.16998)" stroke-width=".3985" stroke-linecap="butt" stroke-miterlimit="10" stroke-linejoin="miter" fill="none" stroke="#000000" d="M 72.0007 14.17339 "/>
<text xml:space="preserve" transform="matrix(1 0 -0 1 -146.32602 669.402)" font-size="9.9626" font-family="CMR10"><tspan y="-600.465" x="224.332">2</tspan></text>
<path transform="matrix(1,0,0,-1,2.4859925,73.16998)" stroke-width=".3985" stroke-linecap="butt" stroke-miterlimit="10" stroke-linejoin="miter" fill="none" stroke="#000000" d="M 155.90744 14.17339 "/>
<text xml:space="preserve" transform="matrix(1 0 -0 1 -146.326 669.402)" font-size="9.9626" font-family="CMR10"><tspan y="-600.465" x="302.227">3</tspan></text>
</g>
</g>
</svg>
