<?xml version="1.0" encoding="UTF-8" standalone="no"?>
<!DOCTYPE svg PUBLIC "-//W3C//DTD SVG 1.1//EN" "http://www.w3.org/Graphics/SVG/1.1/DTD/svg11.dtd">
<svg xmlns="http://www.w3.org/2000/svg" xmlns:xlink="http://www.w3.org/1999/xlink" version="1.1" width="162.145pt" height="60.31pt" viewBox="0 0 162.145 60.31">
<g enable-background="new">
<clipPath id="cp0">
<path transform="matrix(1,0,0,-1,-145.338,668.413)" d="M 0 0 L 612 0 L 612 792 L 0 792 Z "/>
</clipPath>
<g clip-path="url(#cp0)">
<path transform="matrix(1,0,0,-1,3.5740052,29.66101)" stroke-width=".19925" stroke-linecap="butt" stroke-miterlimit="10" stroke-linejoin="miter" fill="none" stroke="#929292" d="M 0 -28.34679 L 155.90744 -28.34679 M 0 -14.17339 L 155.90744 -14.17339 M 0 0 L 155.90744 0 M 0 14.17339 L 155.90744 14.17339 M 0 28.34679 L 155.90744 28.34679 M 0 -28.3468 L 0 28.3468 M 14.17339 -28.3468 L 14.17339 28.3468 M 28.34679 -28.3468 L 28.34679 28.3468 M 42.52019 -28.3468 L 42.52019 28.3468 M 56.69359 -28.3468 L 56.69359 28.3468 M 70.86697 -28.3468 L 70.86697 28.3468 M 85.04037 -28.3468 L 85.04037 28.3468 M 99.21378 -28.3468 L 99.21378 28.3468 M 113.38718 -28.3468 L 113.38718 28.3468 M 127.56056 -28.3468 L 127.56056 28.3468 M 141.73397 -28.3468 L 141.73397 28.3468 M 155.90737 -28.3468 L 155.90737 28.3468 M 155.90744 28.3468 "/>
<path transform="matrix(1,0,0,-1,3.5740052,29.66101)" stroke-width=".3985" stroke-linecap="butt" stroke-miterlimit="10" stroke-linejoin="miter" fill="none" stroke="#000000" d="M .45827 0 L 155.44916 0 "/>
<path transform="matrix(-1,-0,0,1,4.032275,29.66101)" stroke-width=".31879" stroke-linecap="round" stroke-linejoin="round" fill="none" stroke="#000000" d="M -1.19551 1.59401 C -1.09587 .99626 0 .09961 .29886 0 C 0 -.09961 -1.09587 -.99626 -1.19551 -1.59401 "/>
<path transform="matrix(1,0,0,-1,159.02317,29.66101)" stroke-width=".31879" stroke-linecap="round" stroke-linejoin="round" fill="none" stroke="#000000" d="M -1.19551 1.59401 C -1.09587 .99626 0 .09961 .29886 0 C 0 -.09961 -1.09587 -.99626 -1.19551 -1.59401 "/>
<path transform="matrix(1,0,0,-1,3.5740052,29.66101)" stroke-width=".3985" stroke-linecap="butt" stroke-miterlimit="10" stroke-linejoin="miter" fill="none" stroke="#000000" d="M 14.17339 0 "/>
<text xml:space="preserve" transform="matrix(1 0 -0 1 -145.33798 668.413)" font-size="9.9626" font-family="CMSY10" font-style="italic"><tspan y="-636.538" x="160.594">&#x2022;</tspan></text>
<path transform="matrix(1,0,0,-1,3.5740052,29.66101)" stroke-width=".3985" stroke-linecap="butt" stroke-miterlimit="10" stroke-linejoin="miter" fill="none" stroke="#000000" d="M 14.17339 0 "/>
<text xml:space="preserve" transform="matrix(1 0 -0 1 -145.338 668.413)" font-size="9.9626" font-family="CMMI10" font-style="italic"><tspan y="-630.943" x="160.452">a</tspan></text>
<path transform="matrix(1,0,0,-1,3.5740052,29.66101)" stroke-width=".3985" stroke-linecap="butt" stroke-miterlimit="10" stroke-linejoin="miter" fill="none" stroke="#000000" d="M 28.3468 0 "/>
<text xml:space="preserve" transform="matrix(1 0 -0 1 -145.338 668.413)" font-size="9.9626" font-family="CMSY10" font-style="italic"><tspan y="-636.538" x="174.767">&#x2022;</tspan></text>
<path transform="matrix(1,0,0,-1,3.5740052,29.66101)" stroke-width=".3985" stroke-linecap="butt" stroke-miterlimit="10" stroke-linejoin="miter" fill="none" stroke="#000000" d="M 28.3468 0 "/>
<text xml:space="preserve" transform="matrix(1 0 -0 1 -145.33798 668.413)" font-size="9.9626" font-family="CMMI10" font-style="italic"><tspan y="-628.314" x="175.12">b</tspan></text>
<path transform="matrix(1,0,0,-1,3.5740052,29.66101)" stroke-width=".3985" stroke-linecap="butt" stroke-miterlimit="10" stroke-linejoin="miter" fill="none" stroke="#000000" d="M 42.5202 0 "/>
<text xml:space="preserve" transform="matrix(1 0 -0 1 -145.33798 668.413)" font-size="9.9626" font-family="CMSY10" font-style="italic"><tspan y="-636.538" x="188.941">&#x2022;</tspan></text>
<path transform="matrix(1,0,0,-1,3.5740052,29.66101)" stroke-width=".3985" stroke-linecap="butt" stroke-miterlimit="10" stroke-linejoin="miter" fill="none" stroke="#000000" d="M 42.5202 0 "/>
<text xml:space="preserve" transform="matrix(1 0 -0 1 -145.338 668.413)" font-size="9.9626" font-family="CMMI10" font-style="italic"><tspan y="-630.943" x="189.276">c</tspan></text>
<path transform="matrix(1,0,0,-1,3.5740052,29.66101)" stroke-width=".3985" stroke-linecap="butt" stroke-miterlimit="10" stroke-linejoin="miter" fill="none" stroke="#000000" d="M 56.69362 0 "/>
<text xml:space="preserve" transform="matrix(1 0 -0 1 -145.338 668.413)" font-size="9.9626" font-family="CMSY10" font-style="italic"><tspan y="-636.538" x="203.114">&#x2022;</tspan></text>
<path transform="matrix(1,0,0,-1,3.5740052,29.66101)" stroke-width=".3985" stroke-linecap="butt" stroke-miterlimit="10" stroke-linejoin="miter" fill="none" stroke="#000000" d="M 56.69362 0 "/>
<text xml:space="preserve" transform="matrix(1 0 -0 1 -145.33798 668.413)" font-size="9.9626" font-family="CMMI10" font-style="italic"><tspan y="-628.314" x="203.012">d</tspan></text>
<path transform="matrix(1,0,0,-1,3.5740052,29.66101)" stroke-width=".3985" stroke-linecap="butt" stroke-miterlimit="10" stroke-linejoin="miter" fill="none" stroke="#000000" d="M 70.867 0 "/>
<text xml:space="preserve" transform="matrix(1 0 -0 1 -145.338 668.413)" font-size="9.9626" font-family="CMSY10" font-style="italic"><tspan y="-636.538" x="217.287">&#x2022;</tspan></text>
<path transform="matrix(1,0,0,-1,3.5740052,29.66101)" stroke-width=".3985" stroke-linecap="butt" stroke-miterlimit="10" stroke-linejoin="miter" fill="none" stroke="#000000" d="M 70.867 0 "/>
<text xml:space="preserve" transform="matrix(1 0 -0 1 -145.33798 668.413)" font-size="9.9626" font-family="CMMI10" font-style="italic"><tspan y="-630.943" x="217.458">e</tspan></text>
<path transform="matrix(1,0,0,-1,3.5740052,29.66101)" stroke-width=".3985" stroke-linecap="butt" stroke-miterlimit="10" stroke-linejoin="miter" fill="none" stroke="#000000" d="M 85.04042 0 "/>
<text xml:space="preserve" transform="matrix(1 0 -0 1 -145.33802 668.413)" font-size="9.9626" font-family="CMSY10" font-style="italic"><tspan y="-636.538" x="231.46">&#x2022;</tspan></text>
<path transform="matrix(1,0,0,-1,3.5740052,29.66101)" stroke-width=".3985" stroke-linecap="butt" stroke-miterlimit="10" stroke-linejoin="miter" fill="none" stroke="#000000" d="M 85.04042 0 "/>
<text xml:space="preserve" transform="matrix(1 0 -0 1 -145.33798 668.413)" font-size="9.9626" font-family="CMMI10" font-style="italic"><tspan y="-628.314" x="230.976">f</tspan></text>
<path transform="matrix(1,0,0,-1,3.5740052,29.66101)" stroke-width=".3985" stroke-linecap="butt" stroke-miterlimit="10" stroke-linejoin="miter" fill="none" stroke="#000000" d="M 99.21382 0 "/>
<text xml:space="preserve" transform="matrix(1 0 -0 1 -145.33798 668.413)" font-size="9.9626" font-family="CMSY10" font-style="italic"><tspan y="-636.538" x="245.633">&#x2022;</tspan></text>
<path transform="matrix(1,0,0,-1,3.5740052,29.66101)" stroke-width=".3985" stroke-linecap="butt" stroke-miterlimit="10" stroke-linejoin="miter" fill="none" stroke="#000000" d="M 99.21382 0 "/>
<text xml:space="preserve" transform="matrix(1 0 -0 1 -145.338 668.413)" font-size="9.9626" font-family="CMMI10" font-style="italic"><tspan y="-630.943" x="245.569">g</tspan></text>
<path transform="matrix(1,0,0,-1,3.5740052,29.66101)" stroke-width=".3985" stroke-linecap="butt" stroke-miterlimit="10" stroke-linejoin="miter" fill="none" stroke="#000000" d="M 113.38724 0 "/>
<text xml:space="preserve" transform="matrix(1 0 -0 1 -145.33802 668.413)" font-size="9.9626" font-family="CMSY10" font-style="italic"><tspan y="-636.538" x="259.807">&#x2022;</tspan></text>
<path transform="matrix(1,0,0,-1,3.5740052,29.66101)" stroke-width=".3985" stroke-linecap="butt" stroke-miterlimit="10" stroke-linejoin="miter" fill="none" stroke="#000000" d="M 113.38724 0 "/>
<text xml:space="preserve" transform="matrix(1 0 -0 1 -145.338 668.413)" font-size="9.9626" font-family="CMMI10" font-style="italic"><tspan y="-628.314" x="259.427">h</tspan></text>
<path transform="matrix(1,0,0,-1,3.5740052,29.66101)" stroke-width=".3985" stroke-linecap="butt" stroke-miterlimit="10" stroke-linejoin="miter" fill="none" stroke="#000000" d="M 127.56062 0 "/>
<text xml:space="preserve" transform="matrix(1 0 -0 1 -145.33802 668.413)" font-size="9.9626" font-family="CMSY10" font-style="italic"><tspan y="-636.538" x="273.98">&#x2022;</tspan></text>
<path transform="matrix(1,0,0,-1,3.5740052,29.66101)" stroke-width=".3985" stroke-linecap="butt" stroke-miterlimit="10" stroke-linejoin="miter" fill="none" stroke="#000000" d="M 127.56062 0 "/>
<text xml:space="preserve" transform="matrix(1 0 -0 1 -145.33798 668.413)" font-size="9.9626" font-family="CMMI10" font-style="italic"><tspan y="-628.662" x="274.754">i</tspan></text>
<path transform="matrix(1,0,0,-1,3.5740052,29.66101)" stroke-width=".3985" stroke-linecap="butt" stroke-miterlimit="10" stroke-linejoin="miter" fill="none" stroke="#000000" d="M 141.73404 0 "/>
<text xml:space="preserve" transform="matrix(1 0 -0 1 -145.33802 668.413)" font-size="9.9626" font-family="CMSY10" font-style="italic"><tspan y="-636.538" x="288.153">&#x2022;</tspan></text>
<path transform="matrix(1,0,0,-1,3.5740052,29.66101)" stroke-width=".3985" stroke-linecap="butt" stroke-miterlimit="10" stroke-linejoin="miter" fill="none" stroke="#000000" d="M 141.73404 0 "/>
<text xml:space="preserve" transform="matrix(1 0 -0 1 -145.338 668.413)" font-size="9.9626" font-family="CMMI10" font-style="italic"><tspan y="-628.662" x="288.307">j</tspan></text>
</g>
</g>
</svg>
