<?xml version="1.0" encoding="UTF-8" standalone="no"?>
<!DOCTYPE svg PUBLIC "-//W3C//DTD SVG 1.1//EN" "http://www.w3.org/Graphics/SVG/1.1/DTD/svg11.dtd">
<svg xmlns="http://www.w3.org/2000/svg" xmlns:xlink="http://www.w3.org/1999/xlink" version="1.1" width="174.998pt" height="118.643pt" viewBox="0 0 174.998 118.643">
<g enable-background="new">
<clipPath id="cp0">
<path transform="matrix(1,0,0,-1,-146.326,669.402)" d="M 0 0 L 612 0 L 612 792 L 0 792 Z "/>
</clipPath>
<g clip-path="url(#cp0)">
<path transform="matrix(1,0,0,-1,2.4859925,115.688968)" stroke-width=".19925" stroke-linecap="butt" stroke-miterlimit="10" stroke-linejoin="miter" fill="none" stroke="#929292" d="M 0 0 L 170.08086 0 M 0 14.17339 L 170.08086 14.17339 M 0 28.34679 L 170.08086 28.34679 M 0 42.52019 L 170.08086 42.52019 M 0 56.69359 L 170.08086 56.69359 M 0 70.86697 L 170.08086 70.86697 M 0 85.04037 L 170.08086 85.04037 M 0 99.21378 L 170.08086 99.21378 M 0 113.38718 L 170.08086 113.38718 M 0 0 L 0 113.38724 M 14.17339 0 L 14.17339 113.38724 M 28.34679 0 L 28.34679 113.38724 M 42.52019 0 L 42.52019 113.38724 M 56.69359 0 L 56.69359 113.38724 M 70.86697 0 L 70.86697 113.38724 M 85.04037 0 L 85.04037 113.38724 M 99.21378 0 L 99.21378 113.38724 M 113.38718 0 L 113.38718 113.38724 M 127.56056 0 L 127.56056 113.38724 M 141.73397 0 L 141.73397 113.38724 M 155.90737 0 L 155.90737 113.38724 M 170.08077 0 L 170.08077 113.38724 M 170.08086 113.38724 "/>
<path transform="matrix(1,0,0,-1,2.4859925,115.688968)" d="M 14.17339 28.3468 L 70.867 28.3468 L 70.867 14.17339 L 85.04042 14.17339 L 85.04042 28.3468 L 127.56062 28.3468 L 127.56062 56.69362 L 113.38724 56.69362 L 113.38724 85.04042 L 99.21382 85.04042 L 99.21382 99.21382 L 85.04042 99.21382 L 85.04042 85.04042 L 42.5202 85.04042 L 42.5202 42.5202 L 14.17339 42.5202 Z " fill="#ffdfdf"/>
<path transform="matrix(1,0,0,-1,2.4859925,115.688968)" stroke-width=".3985" stroke-linecap="butt" stroke-miterlimit="10" stroke-linejoin="miter" fill="none" stroke="#ffdfdf" d="M 14.17339 28.3468 L 70.867 28.3468 L 70.867 14.17339 L 85.04042 14.17339 L 85.04042 28.3468 L 127.56062 28.3468 L 127.56062 56.69362 L 113.38724 56.69362 L 113.38724 85.04042 L 99.21382 85.04042 L 99.21382 99.21382 L 85.04042 99.21382 L 85.04042 85.04042 L 42.5202 85.04042 L 42.5202 42.5202 L 14.17339 42.5202 Z "/>
<path transform="matrix(1,0,0,-1,2.4859925,115.688968)" stroke-width=".3985" stroke-linecap="butt" stroke-miterlimit="10" stroke-linejoin="miter" fill="none" stroke="#000000" d="M 14.17339 28.3468 L 70.867 28.3468 L 70.867 14.17339 L 85.04042 14.17339 L 85.04042 28.3468 L 127.56062 28.3468 L 127.56062 56.69362 L 113.38724 56.69362 L 113.38724 85.04042 L 99.21382 85.04042 L 99.21382 99.21382 L 85.04042 99.21382 L 85.04042 85.04042 L 42.5202 85.04042 L 42.5202 42.5202 L 14.17339 42.5202 Z "/>
<path transform="matrix(1,0,0,-1,2.4859925,115.688968)" stroke-width=".3985" stroke-linecap="butt" stroke-miterlimit="10" stroke-linejoin="miter" fill="none" stroke="#000000" d="M 14.17339 14.17339 L 14.17339 8.50412 "/>
<path transform="matrix(1,0,0,-1,2.4859925,115.688968)" stroke-width=".3985" stroke-linecap="butt" stroke-miterlimit="10" stroke-linejoin="miter" fill="none" stroke="#000000" d="M 14.17339 11.33855 L 127.56062 11.33855 "/>
<path transform="matrix(1,0,0,-1,2.4859925,115.688968)" stroke-width=".3985" stroke-linecap="butt" stroke-miterlimit="10" stroke-linejoin="miter" fill="none" stroke="#000000" d="M 127.56062 14.17339 L 127.56062 8.50412 "/>
<path transform="matrix(1,0,0,-1,2.4859925,115.688968)" stroke-width=".3985" stroke-linecap="butt" stroke-miterlimit="10" stroke-linejoin="miter" fill="none" stroke="#000000" d="M 70.867 11.33855 "/>
<text xml:space="preserve" transform="matrix(1 0 -0 1 -146.32602 669.402)" font-size="9.9626" font-family="CMR10"><tspan y="-555.111" x="208.167 213.1483">15</tspan></text>
<text xml:space="preserve" transform="matrix(1 0 -0 1 -146.32602 669.402)" font-size="9.9626" font-family="CMMI10" font-style="italic"><tspan y="-555.111" x="218.13 222.44382">cm</tspan></text>
<path transform="matrix(1,0,0,-1,2.4859925,115.688968)" stroke-width=".3985" stroke-linecap="butt" stroke-miterlimit="10" stroke-linejoin="miter" fill="none" stroke="#000000" d="M 138.89917 14.17339 L 144.5689 14.17339 "/>
<path transform="matrix(1,0,0,-1,2.4859925,115.688968)" stroke-width=".3985" stroke-linecap="butt" stroke-miterlimit="10" stroke-linejoin="miter" fill="none" stroke="#000000" d="M 138.89917 56.69362 L 144.5689 56.69362 "/>
<path transform="matrix(1,0,0,-1,2.4859925,115.688968)" stroke-width=".3985" stroke-linecap="butt" stroke-miterlimit="10" stroke-linejoin="miter" fill="none" stroke="#000000" d="M 138.89917 85.04042 L 144.5689 85.04042 "/>
<path transform="matrix(1,0,0,-1,2.4859925,115.688968)" stroke-width=".3985" stroke-linecap="butt" stroke-miterlimit="10" stroke-linejoin="miter" fill="none" stroke="#000000" d="M 138.89917 99.21382 L 144.5689 99.21382 "/>
<path transform="matrix(1,0,0,-1,2.4859925,115.688968)" stroke-width=".3985" stroke-linecap="butt" stroke-miterlimit="10" stroke-linejoin="miter" fill="none" stroke="#000000" d="M 141.73404 14.17339 L 141.73404 99.21382 "/>
<path transform="matrix(1,0,0,-1,2.4859925,115.688968)" stroke-width=".3985" stroke-linecap="butt" stroke-miterlimit="10" stroke-linejoin="miter" fill="none" stroke="#000000" d="M 141.73404 35.43349 "/>
<text xml:space="preserve" transform="matrix(0 1 -1 -0 -450.42805 -222.82804)" font-size="9.9626" font-family="CMR10"><tspan y="-598.166" x="294.064">5</tspan></text>
<text xml:space="preserve" transform="matrix(0 1 -1 -0 -450.42805 -222.82804)" font-size="9.9626" font-family="CMMI10" font-style="italic"><tspan y="-598.166" x="299.04499 303.3588">cm</tspan></text>
<path transform="matrix(1,0,0,-1,2.4859925,115.688968)" stroke-width=".3985" stroke-linecap="butt" stroke-miterlimit="10" stroke-linejoin="miter" fill="none" stroke="#000000" d="M 141.73404 70.867 "/>
<text xml:space="preserve" transform="matrix(0 1 -1 -0 -485.86103 -258.26106)" font-size="9.9626" font-family="CMR10"><tspan y="-633.599" x="294.064">3</tspan></text>
<text xml:space="preserve" transform="matrix(0 1 -1 -0 -485.86103 -258.26106)" font-size="9.9626" font-family="CMMI10" font-style="italic"><tspan y="-633.599" x="299.04499 303.3588">cm</tspan></text>
<path transform="matrix(1,0,0,-1,2.4859925,115.688968)" stroke-width=".3985" stroke-linecap="butt" stroke-miterlimit="10" stroke-linejoin="miter" fill="none" stroke="#000000" d="M 141.73404 92.32565 "/>
<text xml:space="preserve" transform="matrix(0 1 -1 -0 -507.31904 -279.71903)" font-size="9.9626" font-family="CMR10"><tspan y="-655.057" x="294.064">1</tspan></text>
<text xml:space="preserve" transform="matrix(0 1 -1 -0 -507.31904 -279.71903)" font-size="9.9626" font-family="CMMI10" font-style="italic"><tspan y="-655.057" x="299.04499 303.3588">cm</tspan></text>
</g>
</g>
</svg>
