<?xml version="1.0" encoding="UTF-8" standalone="no"?>
<!DOCTYPE svg PUBLIC "-//W3C//DTD SVG 1.1//EN" "http://www.w3.org/Graphics/SVG/1.1/DTD/svg11.dtd">
<svg xmlns="http://www.w3.org/2000/svg" xmlns:xlink="http://www.w3.org/1999/xlink" version="1.1" width="89.971pt" height="88.982pt" viewBox="0 0 89.971 88.982">
<g enable-background="new">
<clipPath id="cp0">
<path transform="matrix(1,0,0,-1,-146.326,669.402)" d="M 0 0 L 612 0 L 612 792 L 0 792 Z "/>
</clipPath>
<g clip-path="url(#cp0)">
<path transform="matrix(1,0,0,-1,2.4859925,73.16998)" stroke-width=".19925" stroke-linecap="butt" stroke-miterlimit="10" stroke-linejoin="miter" fill="none" stroke="#929292" d="M 0 -14.17339 L 85.04042 -14.17339 M 0 0 L 85.04042 0 M 0 14.17339 L 85.04042 14.17339 M 0 28.34679 L 85.04042 28.34679 M 0 42.52019 L 85.04042 42.52019 M 0 56.69359 L 85.04042 56.69359 M 0 70.86697 L 85.04042 70.86697 M 0 -14.17339 L 0 70.867 M 14.17339 -14.17339 L 14.17339 70.867 M 28.34679 -14.17339 L 28.34679 70.867 M 42.52019 -14.17339 L 42.52019 70.867 M 56.69359 -14.17339 L 56.69359 70.867 M 70.86697 -14.17339 L 70.86697 70.867 M 85.04037 -14.17339 L 85.04037 70.867 M 85.04042 70.867 "/>
<path transform="matrix(1,0,0,-1,2.4859925,73.16998)" stroke-width=".3985" stroke-linecap="butt" stroke-miterlimit="10" stroke-linejoin="miter" fill="none" stroke="#000000" d="M 14.17339 14.17339 L 70.867 14.17339 "/>
<path transform="matrix(1,0,0,-1,2.4859925,73.16998)" stroke-width=".3985" stroke-linecap="butt" stroke-miterlimit="10" stroke-linejoin="miter" fill="none" stroke="#000000" d="M 21.2601 21.2601 "/>
<text xml:space="preserve" transform="matrix(1 0 -0 1 -146.32602 669.402)" font-size="9.9626" font-family="CMR10"><tspan y="-615.001" x="166.197">+</tspan></text>
<path transform="matrix(1,0,0,-1,2.4859925,73.16998)" stroke-width=".3985" stroke-linecap="butt" stroke-miterlimit="10" stroke-linejoin="miter" fill="none" stroke="#000000" d="M 35.43349 21.2601 "/>
<text xml:space="preserve" transform="matrix(1 0 -0 1 -146.326 669.402)" font-size="9.9626" font-family="CMMI10" font-style="italic"><tspan y="-614.088" x="180.217">B</tspan></text>
<path transform="matrix(1,0,0,-1,2.4859925,73.16998)" stroke-width=".3985" stroke-linecap="butt" stroke-miterlimit="10" stroke-linejoin="miter" fill="none" stroke="#000000" d="M 49.6069 21.2601 "/>
<text xml:space="preserve" transform="matrix(1 0 -0 1 -146.326 669.402)" font-size="9.9626" font-family="CMMI10" font-style="italic"><tspan y="-614.088" x="194.39">B</tspan></text>
<path transform="matrix(1,0,0,-1,2.4859925,73.16998)" stroke-width=".3985" stroke-linecap="butt" stroke-miterlimit="10" stroke-linejoin="miter" fill="none" stroke="#000000" d="M 63.7803 21.2601 "/>
<text xml:space="preserve" transform="matrix(1 0 -0 1 -146.326 669.402)" font-size="9.9626" font-family="CMMI10" font-style="italic"><tspan y="-614.088" x="208.855">A</tspan></text>
<path transform="matrix(1,0,0,-1,2.4859925,73.16998)" stroke-width=".3985" stroke-linecap="butt" stroke-miterlimit="10" stroke-linejoin="miter" fill="none" stroke="#000000" d="M 35.43349 35.43349 "/>
<text xml:space="preserve" transform="matrix(1 0 -0 1 -146.326 669.402)" font-size="9.9626" font-family="CMR10"><tspan y="-628.455" x="181.754">6</tspan></text>
<path transform="matrix(1,0,0,-1,2.4859925,73.16998)" stroke-width=".3985" stroke-linecap="butt" stroke-miterlimit="10" stroke-linejoin="miter" fill="none" stroke="#000000" d="M 49.6069 35.43349 "/>
<text xml:space="preserve" transform="matrix(1 0 -0 1 -146.326 669.402)" font-size="9.9626" font-family="CMMI10" font-style="italic"><tspan y="-628.261" x="194.39">B</tspan></text>
<path transform="matrix(1,0,0,-1,2.4859925,73.16998)" stroke-width=".3985" stroke-linecap="butt" stroke-miterlimit="10" stroke-linejoin="miter" fill="none" stroke="#000000" d="M 63.7803 35.43349 "/>
<text xml:space="preserve" transform="matrix(1 0 -0 1 -146.326 669.402)" font-size="9.9626" font-family="CMMI10" font-style="italic"><tspan y="-628.261" x="208.855">A</tspan></text>
<path transform="matrix(1,0,0,-1,2.4859925,73.16998)" stroke-width=".3985" stroke-linecap="butt" stroke-miterlimit="10" stroke-linejoin="miter" fill="none" stroke="#000000" d="M 35.43349 49.6069 "/>
<text xml:space="preserve" transform="matrix(1 0 -0 1 -146.326 669.402)" font-size="9.9626" font-family="CMR10"><tspan y="-642.628" x="181.754">7</tspan></text>
<path transform="matrix(1,0,0,-1,2.4859925,73.16998)" stroke-width=".3985" stroke-linecap="butt" stroke-miterlimit="10" stroke-linejoin="miter" fill="none" stroke="#000000" d="M 49.6069 49.6069 "/>
<text xml:space="preserve" transform="matrix(1 0 -0 1 -146.326 669.402)" font-size="9.9626" font-family="CMR10"><tspan y="-642.628" x="195.928">7</tspan></text>
<path transform="matrix(1,0,0,-1,2.4859925,73.16998)" stroke-width=".3985" stroke-linecap="butt" stroke-miterlimit="10" stroke-linejoin="miter" fill="none" stroke="#000000" d="M 63.7803 49.6069 "/>
<text xml:space="preserve" transform="matrix(1 0 -0 1 -146.326 669.402)" font-size="9.9626" font-family="CMMI10" font-style="italic"><tspan y="-642.435" x="208.855">A</tspan></text>
<path transform="matrix(1,0,0,-1,2.4859925,73.16998)" stroke-width=".3985" stroke-linecap="butt" stroke-miterlimit="10" stroke-linejoin="miter" fill="none" stroke="#000000" d="M 21.2601 7.08669 "/>
<text xml:space="preserve" transform="matrix(1 0 -0 1 -146.326 669.402)" font-size="9.9626" font-family="CMR10"><tspan y="-600.109" x="167.581">1</tspan></text>
<path transform="matrix(1,0,0,-1,2.4859925,73.16998)" stroke-width=".3985" stroke-linecap="butt" stroke-miterlimit="10" stroke-linejoin="miter" fill="none" stroke="#000000" d="M 35.43349 7.08669 "/>
<text xml:space="preserve" transform="matrix(1 0 -0 1 -146.32602 669.402)" font-size="9.9626" font-family="CMMI10" font-style="italic"><tspan y="-599.915" x="180.509">A</tspan></text>
<path transform="matrix(1,0,0,-1,2.4859925,73.16998)" stroke-width=".3985" stroke-linecap="butt" stroke-miterlimit="10" stroke-linejoin="miter" fill="none" stroke="#000000" d="M 49.6069 7.08669 "/>
<text xml:space="preserve" transform="matrix(1 0 -0 1 -146.32602 669.402)" font-size="9.9626" font-family="CMMI10" font-style="italic"><tspan y="-599.915" x="194.682">A</tspan></text>
<path transform="matrix(1,0,0,-1,2.4859925,73.16998)" stroke-width=".3985" stroke-linecap="butt" stroke-miterlimit="10" stroke-linejoin="miter" fill="none" stroke="#000000" d="M 63.7803 7.08669 "/>
<text xml:space="preserve" transform="matrix(1 0 -0 1 -146.326 669.402)" font-size="9.9626" font-family="CMR10"><tspan y="-600.109" x="210.101">7</tspan></text>
</g>
</g>
</svg>
